<?xml version="1.0" encoding="UTF-8"?><svg xmlns="http://www.w3.org/2000/svg" viewBox="0 0 2426.32 1946.75">
                        <defs>
                            <style>
                                .cls-1 {
                                    fill: #f4a640;
                                }

                                .cls-2 {
                                    fill: #f7b5b2;
                                }

                                .cls-3,
                                .cls-4,
                                .cls-5 {
                                    fill: #f99893;
                                }

                                .cls-6,
                                .cls-7 {
                                    fill: #f3fdff;
                                }

                                .cls-8 {
                                    fill: #040744;
                                }

                                .cls-9 {
                                    fill: #06052d;
                                }

                                .cls-10 {
                                    fill: #02ccc0;
                                }

                                .cls-11 {
                                    fill: #ef9d30;
                                }

                                .cls-12 {
                                    fill: #e8eff9;
                                }

                                .cls-13,
                                .cls-14,
                                .cls-15 {
                                    fill: #fff;
                                }

                                .cls-16 {
                                    fill: #ffc0bb;
                                }

                                .cls-17 {
                                    fill: #ffd0cf;
                                }

                                .cls-18 {
                                    fill: #fbf9eb;
                                }

                                .cls-19 {
                                    fill: #fc8d84;
                                }

                                .cls-20 {
                                    fill: #feb546;
                                }

                                .cls-21 {
                                    fill: #000;
                                }

                                .cls-22 {
                                    fill: #777;
                                }

                                .cls-23 {
                                    fill: #c4205b;
                                }

                                .cls-24 {
                                    fill: #999;
                                }

                                .cls-25 {
                                    fill: #555;
                                }

                                .cls-26 {
                                    fill: #ccf6fe;
                                }

                                .cls-27,
                                .cls-28 {
                                    fill: #78000e;
                                }

                                .cls-29 {
                                    fill: #ce205f;
                                }

                                .cls-30 {
                                    fill: #cfe4ff;
                                }

                                .cls-31,
                                .cls-32 {
                                    fill: #e03268;
                                }

                                .cls-33 {
                                    fill: #caf0ff;
                                }

                                .cls-34 {
                                    fill: #1e1e1e;
                                }

                                .cls-35 {
                                    fill: #224887;
                                }

                                .cls-36 {
                                    fill: #424444;
                                }

                                .cls-37 {
                                    fill: #04b2a1;
                                }

                                .cls-38 {
                                    fill: #07085b;
                                }

                                .cls-39 {
                                    fill: #3660ac;
                                }

                                .cls-40 {
                                    fill: #444;
                                }

                                .cls-41 {
                                    fill: #54a9d4;
                                }

                                .cls-42 {
                                    fill: #999;
                                }

                                .cls-43 {
                                    fill: #282828;
                                }

                                .cls-44 {
                                    fill: #4d5296;
                                }

                                .cls-28,
                                .cls-4 {
                                    mix-blend-mode: multiply;
                                }

                                .cls-4 {
                                    opacity: .3;
                                }

                                .cls-45 {
                                    isolation: isolate;
                                }

                                .cls-5,
                                .cls-7,
                                .cls-46,
                                .cls-32 {
                                    opacity: .5;
                                }

                                .cls-46 {
                                    fill: #daeef7;
                                }

                                .cls-14 {
                                    opacity: .8;
                                }

                                .cls-15 {
                                    opacity: .4;
                                }
                            </style>
                        </defs>
                        <g class="cls-45">
                            <g id="Layer_1">
                                <path class="cls-15"
                                    d="m430.06,1611.68c13.15-12.34,25.79-25.83,33.09-42.32,8.75-19.74,9.15-42.12,7.65-63.66-2.15-30.95-8.34-62.72-26.21-88.07-25.58-36.28-69.91-53.11-107.03-77.45-37.12-24.34-70.89-67.88-56.29-109.8,10.12-29.05,41.05-48.18,47.54-78.25,6.96-32.28-18-63.85-47.36-78.97-14.61-7.53-30.16-12.37-46.2-15.54-15.3,82.68-37.89,157.99-81.44,197.37-10.18,9.2-20.9,17.81-31.64,26.39.84.59,1.69,1.17,2.53,1.77,9.77,6.97,19.79,14.81,24.12,25.99,6.21,16.02-.6,35.5,7.81,50.48,14.44,25.7,55.45,14.33,80.3,30.18,9.86,6.29,16.45,16.54,21.82,26.93,9.47,18.32,16.11,40.27,8.2,59.32-16.12,38.81-75.43,35.83-103.05,67.51-30.64,35.15-7.44,91.4-23.03,135.35-9.69,27.31-33.48,46.98-58.49,61.89,29.11,44.86,65.34,90.05,104.41,127.19,4.44-7.49,8.15-15.37,11-23.5,12.58-35.96,12.54-77.79,36.75-107.21,18.77-22.8,48.22-33.14,75.15-45.27,44.18-19.89,85.04-47.15,120.38-80.29Z" />
                                <path class="cls-15"
                                    d="m2205.52,425.34c-.77-3.31-1.59-6.61-2.45-9.9-20.65,1.62-41.35,3.15-61.5,7.62-50.18,11.12-94.67,39.89-143.74,55.18-85.4,26.61-177.44,10.76-266.84,13.86-84.09,2.92-174.01,21.73-248.34-17.69-10.28-5.45-20.5-12.5-25.29-23.1-7.14-15.8.42-35.25,13.56-46.57,13.14-11.31,30.6-16.11,47.62-19.38,73.9-14.2,149.97-5.81,225.21-4.18,75.24,1.64,154.1-4.61,218.18-44.08,30.47-18.77,57.48-46.28,66.5-80.9,3.92-15.06,4.67-31.74,14.21-44.03,5.81-7.49,13.86-12.1,22.85-15.05-53.1-46.17-116.83-80.12-185.35-96.31-19.51,4.23-38,11.13-54.77,21.65-12.88,8.11-24.64,19.12-29.96,33.38-5.32,14.26-2.81,32.12,8.83,41.93,6.36,5.36,14.8,7.99,20.56,13.99,10.22,10.64,8.3,28.83-.44,40.72-8.74,11.89-22.51,18.86-35.96,24.94-68.5,30.96-142.46,49.78-217.42,55.33-62.55,4.63-125.44.1-188.11,2.73-62.67,2.63-126.71,13.04-180.8,44.81-8.57,5.03-17.13,10.88-22.14,19.46-5.58,9.56-6,21.24-5.2,32.28,2.26,31.01,13.19,61.34,31.23,86.66,2.99,4.2,6.17,8.21,9.49,12.08l107.48-22.16,19.02,92.25c17.54,3.89,35.44,6.29,53.14,7.35,72.01,4.3,143.67-9.98,215.58-15.77,155.03-12.47,310.12,14.59,465.11,27.51,29.2,2.43,58.64,4.36,87.74,1.01,22.27-2.57,44.08-8.43,64.74-17.08-7.99-59.5-9.2-120.05-22.75-178.54Z" />
                                <path class="cls-15"
                                    d="m2337.75,1344.01c-27-11.56-52.01-27.45-79.24-38.45-78.45-31.68-169.61-20.71-246.87-55.18-14.07-6.28-28.02-14.49-36.33-27.46-8.31-12.97-9.29-31.69,1.35-42.83,9.8-10.26,25.58-11.24,39.77-11.54,53.62-1.16,107.49-2.3,160.63,4.91,23.75,3.22,47.69,8.1,71.47,5.17,33.38-4.12,62.94-23.23,89.26-44.16,7.04-5.6,14.15-11.48,22.68-14.31,7.51-2.5,15.59-2.45,23.51-2.38,12.77.12,25.54.23,38.32.35-3.55-29.33-9.98-58.28-20.38-86.73-8.31-22.72-18.96-44.37-30.61-65.57-23.53-4.81-47.04-9.75-70.58-14.51-17.83-3.61-36.51-7.19-53.98-2.1-26.29,7.65-42.99,32.47-62.46,51.72-38.14,37.7-91.57,56.41-144.71,63.67-53.14,7.27-107.05,4.22-160.68,4.63-76.44.59-152.82,8.26-227.85,22.88-22.77,4.44-46.65,10.14-63.44,26.16-26.03,24.84-26.31,68.56-8.42,99.78,17.89,31.21,49.89,51.77,82.73,66.46,130.41,58.32,286.62,41.79,412.69,108.97,41.8,22.28,78.82,53.12,121.92,72.77,61.9,28.23,129.44,30.98,198.18,30.01,2.4-43.62,8.15-87.47,14.06-131.19-24.35-4.77-48.22-11.3-71.03-21.07Z" />
                                <path class="cls-14"
                                    d="m1834.93,340.93c-5.03-21.9-24.63-38.24-48.06-38.24-4.3,0-8.47.55-12.45,1.59-11.56-24.73-36.66-41.86-65.76-41.86-7.52,0-14.78,1.15-21.6,3.27-15.67-25.94-44.13-43.29-76.65-43.29-38.69,0-71.64,24.55-84.12,58.93-8.84-4.93-19.01-7.75-29.85-7.75-33.91,0-61.4,27.49-61.4,61.4,0,2.01.1,4,.29,5.96h399.6Z" />
                                <path class="cls-22"
                                    d="m1938.79,1879.98c-4.12,4-7.58,11.93-11.25,20.33-2.97,6.81-6.17,14.12-10.43,21.33h-108.22c2.94-1.83,5.94-3.57,9.03-5.14,6.99-3.57,14.09-6.34,20.36-8.78,9.25-3.6,17.98-7.01,22.46-11.49,4.08-4.08,7.5-11.92,11.12-20.22,5.31-12.16,11.91-27.29,24.62-39.63,17.17-16.66,39-22.22,56.54-26.69,12.27-3.13,23.86-6.08,29.28-11.53,2.92-2.94,5.86-8.42,8.98-14.23,1.96-3.66,4-7.45,6.41-11.4,19.91-32.62,54.34-55.5,92.13-61.21,2.14-.32,4.14-.57,6.07-.82,3.11-.39,31.74-6.23,41.28.33h0c17.94,12.32,17.3,39.26-1.44,50.34-2.15,1.27-4.43,2.45-6.83,3.5-9.4,4.1-18.32,5.22-25.49,6.11-1.62.2-3.15.39-4.52.6-19.94,3.01-38.84,15.57-49.35,32.78-1.53,2.51-3.08,5.4-4.73,8.47-.52.97-1.05,1.96-1.6,2.98l-26.74.9,19.3,11.63c-2.92,4.36-6.31,8.75-10.41,12.86-17.24,17.33-39.48,23-57.35,27.55-12.18,3.11-23.69,6.04-29.24,11.42Z" />
                                <path class="cls-24"
                                    d="m1923.63,1786.28c-4.2,6.19-6.52,17.2-8.98,28.87-3.66,17.37-7.8,37.06-20.13,55.82-13.63,20.75-33.04,33.34-48.62,43.46-3.8,2.47-7.48,4.86-10.86,7.21h-100.5c10.35-22.01,25.63-41.69,44.7-56.97,7.97-6.39,16.29-11.79,23.63-16.55,10.83-7.03,21.07-13.67,25.59-20.55,4.12-6.27,6.41-17.17,8.84-28.7,3.56-16.89,7.98-37.92,20.93-56.99,17.49-25.75,43.84-38.59,65.02-48.91,14.81-7.22,28.81-14.04,34.28-22.41,2.95-4.51,5.25-12.28,7.69-20.51,1.54-5.19,3.13-10.55,5.16-16.21,9.34-26.06,25.21-49.45,45.49-68.05l18.1,28.58-7.97-37.18c13.76-10.8,29.15-19.54,45.65-25.63,2.64-.98,5.13-1.82,7.53-2.64,3.86-1.31,38.8-16.3,52.69-10.46h0c19.13,8.04,27.6,28.71,22.52,46.68l-35.96,3.04,27.29,12.4c-.76.83-1.56,1.64-2.41,2.41-2.41,2.19-5,4.29-7.79,6.26-10.9,7.71-21.98,11.48-30.87,14.5-2.01.69-3.91,1.33-5.6,1.95-24.61,9.09-45.4,30.08-54.25,54.78-1.29,3.6-2.5,7.7-3.79,12.04-2,6.76-4.29,14.44-7.53,22.39l-40.72,7.83,34.02,6.01c-.96,1.69-1.98,3.37-3.07,5.04-17.4,26.63-44.25,39.71-65.82,50.23-14.71,7.17-28.6,13.94-34.25,22.26Z" />
                                <path class="cls-42"
                                    d="m1954.08,1554.89c.78,12.95,1.72,28.7-1.19,45.48-20.92,11.78-61.78,34.8-57.12,32.32,4.37-2.32,34.49-9.31,52.13-13.29-10.51,29.68-31.4,51.28-48.59,69.05-13.29,13.73-25.84,26.7-28.72,38.09-2.14,8.47-.3,21.48,1.66,35.26,2.91,20.52,6.21,43.78.16,69.29-6.69,28.21-22.97,49.76-36.04,67.08-5.33,7.05-10.36,13.72-14.16,19.96-.7,1.15-1.36,2.32-2.01,3.5h-98.28c4.52-18.08,11.71-35.5,21.44-51.5,6.2-10.19,13.18-19.43,19.34-27.59,9.09-12.04,17.67-23.41,19.89-32.76,2.02-8.52.2-21.4-1.74-35.03-2.83-19.96-6.35-44.8.26-70.89,8.93-35.23,32.73-59.84,51.86-79.61,13.38-13.83,26.02-26.89,28.69-38.26,1.44-6.13.87-15.57.27-25.57-.38-6.31-.77-12.83-.8-19.85-.24-54.28,22.74-107.67,61.94-145.04l18.04,7.96-8.91-16.13c2.26-1.89,4.42-3.63,6.51-5.31,3.71-2.98,36.09-33.35,53.66-32.48h0c33.03,1.64,53.68,37,38.28,66.27-1.77,3.37-3.78,6.7-6.05,9.98-8.89,12.81-19.55,21.36-28.1,28.23-1.93,1.55-3.76,3.02-5.36,4.38-23.39,19.79-37.83,51.12-37.7,81.75.02,4.46.32,9.45.64,14.72Z" />
                                <path class="cls-22"
                                    d="m517.87,1903.74c4.59,3.46,9,10.9,13.67,18.78,3.79,6.39,7.86,13.25,12.98,19.88l107.39-13.35c-3.14-1.46-6.33-2.81-9.6-3.99-7.38-2.68-14.77-4.55-21.29-6.2-9.62-2.44-18.71-4.74-23.7-8.63-4.55-3.54-8.91-10.9-13.53-18.7-6.76-11.41-15.18-25.61-29.32-36.29-19.09-14.41-41.44-17.24-59.4-19.51-12.56-1.59-24.43-3.09-30.48-7.83-3.26-2.55-6.86-7.64-10.67-13.02-2.4-3.39-4.88-6.9-7.76-10.52-23.78-29.91-60.77-48.37-98.97-49.38-2.17-.06-4.18-.06-6.13-.06-3.13,0-32.26-2.26-40.92,5.42h0c-16.28,14.44-12.32,41.09,7.63,49.78,2.29,1,4.7,1.88,7.21,2.63,9.84,2.91,18.83,2.92,26.05,2.92,1.63,0,3.17,0,4.56.04,20.16.53,40.47,10.66,53.01,26.45,1.83,2.3,3.73,4.98,5.74,7.82.63.89,1.29,1.82,1.96,2.76l26.65-2.41-17.72,13.92c3.43,3.96,7.34,7.9,11.92,11.48,19.25,15.07,42.01,17.95,60.31,20.27,12.47,1.58,24.26,3.07,30.43,7.73Z" />
                                <path class="cls-24"
                                    d="m521.36,1808.88c4.93,5.62,8.59,16.27,12.47,27.54,5.77,16.79,12.31,35.81,26.86,52.91,16.09,18.91,36.9,29.01,53.61,37.13,4.08,1.98,8.02,3.9,11.67,5.82l99.73-12.4c-12.98-20.57-30.58-38.21-51.38-51.02-8.7-5.35-17.62-9.69-25.5-13.51-11.62-5.64-22.59-10.97-27.93-17.24-4.86-5.71-8.48-16.24-12.32-27.39-5.61-16.33-12.6-36.64-27.8-53.97-20.53-23.39-48.27-32.89-70.56-40.52-15.59-5.34-30.32-10.38-36.78-18.01-3.48-4.11-6.73-11.54-10.16-19.4-2.17-4.96-4.41-10.08-7.12-15.45-12.48-24.71-31.12-45.96-53.54-61.92l-14.44,30.6,3.33-37.88c-14.98-9.02-31.34-15.79-48.46-19.8-2.75-.64-5.31-1.18-7.79-1.69-3.99-.83-40.52-11.39-53.58-3.88h0c-17.99,10.34-23.85,31.9-16.59,49.11l36.06-1.42-25.55,15.67c.86.73,1.75,1.43,2.69,2.1,2.66,1.88,5.49,3.64,8.5,5.25,11.77,6.31,23.22,8.68,32.43,10.59,2.08.43,4.04.84,5.79,1.25,25.55,5.99,48.76,24.25,60.59,47.67,1.72,3.41,3.44,7.33,5.25,11.48,2.82,6.46,6.03,13.8,10.24,21.29l41.37,2.75-33.01,10.16c1.16,1.55,2.38,3.1,3.67,4.62,20.55,24.28,48.81,33.95,71.51,41.72,15.48,5.3,30.1,10.3,36.74,17.87Z" />
                                <path class="cls-42"
                                    d="m462.6,1583.02c.83,12.95,1.84,28.7,6.79,44.99,22.21,9.11,65.6,26.91,60.67,25.03-4.62-1.77-35.37-4.99-53.38-6.75,14.09,28.15,37.49,47.02,56.74,62.53,14.88,11.99,28.93,23.31,33.2,34.26,3.17,8.14,2.95,21.28,2.71,35.2-.36,20.73-.76,44.21,8.39,68.78,10.12,27.17,28.93,46.55,44.04,62.12,6.16,6.34,11.97,12.34,16.51,18.06.83,1.05,1.64,2.13,2.42,3.22l97.53-12.12c-6.72-17.38-16-33.79-27.63-48.46-7.41-9.34-15.48-17.66-22.6-24.99-10.5-10.82-20.43-21.05-23.78-30.06-3.06-8.21-2.83-21.21-2.6-34.97.35-20.16.78-45.24-9-70.32-13.21-33.86-39.86-55.34-61.29-72.6-14.99-12.07-29.14-23.48-33.19-34.43-2.18-5.9-2.79-15.35-3.42-25.34-.4-6.3-.82-12.82-1.65-19.8-6.46-53.89-35.85-104.04-79.36-136.29l-16.92,10.12,6.85-17.11c-2.47-1.6-4.83-3.06-7.11-4.47-4.05-2.5-39.93-28.65-57.26-25.62h0c-32.58,5.7-48.7,43.33-29.81,70.48,2.17,3.12,4.57,6.18,7.24,9.15,10.4,11.61,22.03,18.78,31.37,24.54,2.11,1.3,4.11,2.53,5.86,3.68,25.65,16.75,43.85,46.06,47.5,76.48.53,4.43.85,9.41,1.18,14.69Z" />
                                <rect class="cls-28" x="617.53" y="580.57" width="830.74" height="1156.82"
                                    transform="translate(-212.72 232.41) rotate(-11.65)" />
                                <rect class="cls-13" x="552.9" y="685.56" width="830.74" height="1156.82"
                                    transform="translate(-279.44 274.84) rotate(-14.14)" />
                                <path class="cls-21"
                                    d="m784.09,1164.41l-182.83,46.06-46.06-182.83,182.83-46.06,46.06,182.83Zm-170.91,26.11l150.96-38.03-38.03-150.96-150.96,38.03,38.03,150.96Z" />
                                <path class="cls-21"
                                    d="m854.01,1437.45l-184.95,46.59-46.59-184.95,184.95-46.59,46.59,184.95Zm-171.44,23.99l148.84-37.5-37.5-148.83-148.84,37.5,37.5,148.84Z" />
                                <path class="cls-21"
                                    d="m922.6,1709.71l-184.95,46.59-46.59-184.95,184.95-46.59,46.59,184.95Zm-171.44,23.99l148.83-37.5-37.5-148.83-148.84,37.5,37.5,148.83Z" />
                                <rect class="cls-30" x="801.7" y="967.51" width="436.73" height="17.53"
                                    transform="translate(-207.59 278.77) rotate(-14.14)" />
                                <rect class="cls-30" x="816.61" y="1026.69" width="436.73" height="17.53"
                                    transform="translate(-221.6 284.21) rotate(-14.14)" />
                                <rect class="cls-30" x="870.29" y="1239.77" width="436.73" height="17.53"
                                    transform="translate(-272.02 303.78) rotate(-14.14)" />
                                <rect class="cls-30" x="885.2" y="1298.94" width="436.73" height="17.53"
                                    transform="translate(-286.03 309.21) rotate(-14.14)" />
                                <rect class="cls-30" x="938.87" y="1512.02" width="436.73" height="17.53"
                                    transform="translate(-336.45 328.78) rotate(-14.14)" />
                                <rect class="cls-30" x="953.78" y="1571.2" width="436.73" height="17.53"
                                    transform="translate(-350.46 334.22) rotate(-14.14)" />
                                <path class="cls-38"
                                    d="m738.45,918.89l-55.61-72.71,14.85-3.74,28.22,37.97c10.48,14.13,14.99,20.96,17.68,25.31l.23-.06c.22-4.46,1.43-12.68,3.55-29.51l7.3-48.06,14.42-3.63-15.1,90.52-15.54,3.91Z" />
                                <path class="cls-38"
                                    d="m870.71,841.94c5.78,22.94-4.7,46.65-32.59,53.67-26.59,6.7-47.62-8.07-53.64-31.96-5.69-22.57,6.17-46.46,32.7-53.15,26.62-6.71,47.85,8.9,53.53,31.43Zm-72.04,17.83c4.29,17.03,18.08,29.49,37.25,24.67,19.1-4.81,24.78-22.02,20.59-38.67-4.11-16.31-17.7-28.96-37.18-24.06-18.27,4.6-24.79,21.67-20.66,38.06Z" />
                                <path class="cls-38"
                                    d="m900.5,803.26l-30.52,7.69-2.82-11.2,74.53-18.78,2.82,11.2-30.47,7.68,17.72,70.35-13.55,3.41-17.72-70.35Z" />
                                <path class="cls-38"
                                    d="m1027.84,806.52l-48.1,12.12,6.53,25.93,53.15-13.39,1.1,11.62-64.92,16.35-20.54-81.54,64.12-16.15,2.82,11.19-50.63,12.76,5.56,22.05,48.1-12.12,2.82,11.19Z" />
                                <polygon class="cls-38"
                                    points="673.65 1157.75 618.38 1127.26 626.85 1111.91 664.87 1132.89 709.59 1023.36 725.81 1029.99 673.65 1157.75" />
                                <polygon class="cls-38"
                                    points="780.52 1310.42 762.65 1299.74 732.3 1350.54 681.49 1320.19 670.81 1338.05 721.62 1368.41 691.26 1419.22 709.13 1429.89 739.49 1379.09 790.29 1409.45 800.97 1391.58 750.16 1361.22 780.52 1310.42" />
                                <path class="cls-17"
                                    d="m1406.83,615.21s21.94,197.93,28.48,243.68c6.54,45.75,2.8,272.62,22.41,321.17,19.61,48.55,50.41,110.17,46.68,174.59-3.73,64.42-4.67,297.83-4.67,297.83l322.1-7.47s-12.55-342.14-15.35-373.89c0,0,72.3-49.98,99.38-125.6,27.08-75.62,95.23-205.4,110.17-217.53,14.94-12.14,60.69-33.61,56.95-49.48-3.73-15.87-44.81-44.81-124.17,15.87-79.36,60.69-69.09,93.36-90.56,80.29-21.47-13.07,30.34-535.9-36.88-535.9s-58.6,380.92-81.35,378.43c-22.75-2.49-21.81-436.31-73.16-427.91-48.62,7.96-21.47,423.87-40.15,425.73-18.67,1.87-20.54-375.32-64.42-370.65-62.21,6.62-18.67,385.59-33.61,387.46-14.94,1.87-78.42-259.08-103.63-257.68-25.44,1.41-18.21,41.08-18.21,41.08Z" />
                                <path class="cls-16"
                                    d="m1217.47,859.86l-.74-28.67-40.78,8.4-2.4,18.9c3.1,3.11,19.7,17.81,43.92,1.36Z" />
                                <path class="cls-19"
                                    d="m1217.37,856.03l-.64-24.83-41.38,12.87-1.16,9.31c9.18,3.33,26.63,7.38,43.18,2.66Z" />
                                <path class="cls-3"
                                    d="m1244.93,779.41c-2.35,7.16.54,14.45,6.45,16.27,5.92,1.82,12.62-2.5,14.97-9.67,2.35-7.16-.54-14.45-6.46-16.27-5.92-1.82-12.62,2.5-14.97,9.67Z" />
                                <path class="cls-16"
                                    d="m1246.2,820.16c1.54-3.13,2.79-6.42,3.72-9.83,2.7-9.19,3.65-18.8,3.8-27.13.03-1.79.17-3.57.35-5.35.7-7.19.06-14.7-2.29-22.3-7.57-24.44-31.26-41.48-57.6-41.36-35.48.17-62.43,29.37-59.7,62.73-3.91-1.73-8.15-1.87-11.72.01-6.85,3.62-8.62,13.27-3.95,21.57,4.67,8.3,14.01,12.09,20.85,8.47.95-.5,1.79-1.13,2.55-1.85,5.31,28.15,31.11,48.22,59.86,45.56,14.06-1.3,26.35-7.82,35.22-17.48.6-.57,1.22-1.23,1.87-1.99,2.85-3.35,5.16-7.09,7.04-11.05Z" />
                                <path class="cls-25"
                                    d="m1192.55,778.53c.28,2.79-1.83,5.27-4.71,5.54-2.88.27-5.44-1.78-5.72-4.57-.28-2.79,1.83-5.27,4.71-5.54,2.88-.27,5.44,1.78,5.72,4.57Z" />
                                <path class="cls-25"
                                    d="m1233.68,776.53c.28,2.79-1.83,5.27-4.71,5.54-2.88.27-5.44-1.78-5.72-4.57-.28-2.79,1.83-5.27,4.71-5.54,2.88-.27,5.44,1.78,5.72,4.57Z" />
                                <path class="cls-25"
                                    d="m1197.85,767.93c-2.65-.78-5.17-1.38-7.68-1.7-2.5-.33-4.95-.35-7.33,0-2.37.37-4.74.94-6.99,2.03l-.88.36c-.29.12-.55.3-.84.44l-1.71.89c-1.15.62-2.21,1.39-3.49,2,.65-1.17,1.4-2.33,2.28-3.38.99-.94,1.88-2.06,3.1-2.8,2.25-1.73,5.1-2.76,7.99-3.18,2.91-.41,5.9-.09,8.58.85,2.67.97,5.15,2.42,6.96,4.5Z" />
                                <path class="cls-25"
                                    d="m1215,766.33c1.61-2.23,3.94-3.89,6.51-5.08,2.59-1.17,5.54-1.75,8.47-1.58,2.91.18,5.84.96,8.25,2.48,1.28.63,2.28,1.66,3.35,2.52.97.98,1.83,2.07,2.59,3.17-1.33-.51-2.46-1.18-3.66-1.7l-1.79-.74c-.3-.11-.57-.27-.88-.37l-.9-.28c-2.34-.89-4.76-1.25-7.15-1.42-2.4-.14-4.85.09-7.3.63-2.46.54-4.92,1.35-7.49,2.36Z" />
                                <path class="cls-13"
                                    d="m1227.99,810.21c-1.76,6.22-9.42,10.82-18.53,10.66-9.11-.16-16.6-5.02-18.13-11.29l36.66.64Z" />
                                <polygon class="cls-34"
                                    points="1064.38 1215.06 1029.51 1930.88 1103.85 1938.44 1232.33 1203.72 1064.38 1215.06" />
                                <path class="cls-13"
                                    d="m1158.62,871.08s-8.33,366.65-5.79,366.59c2.54-.06,73.18,13.29,73.18,13.29l22-30.24-3.87-337.05-36.3-12.6-12.56-3.56-16.24.13-20.42,3.44Z" />
                                <polygon class="cls-43"
                                    points="1220.88 1156.87 1198.17 885.76 1190.77 885.75 1168.94 1156.87 1194.91 1186.93 1220.88 1156.87" />
                                <path class="cls-36"
                                    d="m1187.13,883.92l1.77,1.51c3.36,2.87,8.29,2.96,11.75.22l3.09-2.44-8.24-13.47-5.78,1.34-2.6,12.84Z" />
                                <path class="cls-2"
                                    d="m1521.79,707.35c.23,1.12,1.62,1.55,2.43.74,6.3-6.27,26.25-25.89,28.21-24.65,2.33,1.47-15.07,19.44-13.93,21.73s17.67-15.65,19.91-13.68c2.24,1.98-13.38,17.84-12.73,19,.65,1.16,17.24-12.43,19.26-12.06,2.02.37-13.93,17.04-13.54,18.68.39,1.64,15.22-6.21,16.04-5.01.82,1.19,1.57,1.85-26.76,29.08l-11.61,10.24-13.99,3.25-9.88-14.16s8.05-49.92,9.94-50.78c1.81-.82,3.1.31,6.65,17.62Z" />
                                <path class="cls-12"
                                    d="m1217.46,858.07s-11.59,6.71-22.13,9.44c-10.54-2.73-22.13-9.44-22.13-9.44l-14.57,13.01c2.2,11.92,25.99,20.63,25.99,20.63l10.45-20.69,8.29,20.69s17.94-4.99,28.98-16.48l-14.87-17.16Z" />
                                <path class="cls-43"
                                    d="m1536.46,754.68s-8.82-22.53-39.06-24.88c0,0-58.85,151.35-271.39,138.12,1.29,51.46,7.35,289.95,11.08,363.01,37.35-4.18,69.63-8.73,69.63-8.73,0,0-16.8-201.18-5.04-255.78,0,0,186.9,1.97,234.78-211.74Z" />
                                <path class="cls-43"
                                    d="m1161.61,868.36c-27.43,6.26-197.6,47.38-230.79,110.66-36.12,68.88,59.64,198.24,100.8,204.96,0,0,16.38-15.96,24.78-55.44,0,0-42-46.2-47.46-107.94,0,0,42.42-19.32,60.9-24.78l-15.23,253.23s44.4,18.49,83.88,21.85c6.39.54,15.18.51,25.41.08l-2.3-402.62Z" />
                                <polygon class="cls-36"
                                    points="1161.61 868.36 1104.28 920.22 1132.95 940.38 1104.28 972.3 1161.61 1237.4 1161.61 868.36" />
                                <polygon class="cls-36"
                                    points="1226.01 867.92 1283.34 919.38 1254.67 939.54 1283.34 971.46 1237.09 1230.92 1226.01 867.92" />
                                <path class="cls-5"
                                    d="m1500.15,883.96s174.74-54.74,306.32-7.37c0,0-158.95-12.63-306.32,7.37Z" />
                                <rect class="cls-20" x="1482.81" y="1768.07" width="337.03" height="156.15" />
                                <path class="cls-5"
                                    d="m1500.15,1009.16s151.58,131.93,181.76,197.2c0,0,81.4-148.77,147.37-202.11,0,0-100.35,43.51-145.26,124.91,0,0-84.91-89.83-183.86-120Z" />
                                <path class="cls-5"
                                    d="m1505.77,1199.06s12.63,82.81,136.14,70.88c0,0-100.45-17.36-136.14-70.88Z" />
                                <path class="cls-1"
                                    d="m1494.87,1623.66c47.86.84,176.78,2.56,328.2-.04,10.8-.19,19.84,8.15,20.54,18.93l8.57,133.09c.75,11.66-8.51,21.54-20.2,21.54h-342.12c-11.45,0-20.62-9.5-20.22-20.94l4.64-133.05c.38-11.04,9.54-19.72,20.58-19.53Z" />
                                <path class="cls-6"
                                    d="m1809.06,1710.4c0,14.95-12.12,27.08-27.07,27.08s-27.08-12.12-27.08-27.08,12.12-27.08,27.08-27.08,27.07,12.12,27.07,27.08Z" />
                                <rect class="cls-21" x="1179.32" y="1252.36" width="332.69" height="671.66" />
                                <polygon class="cls-31"
                                    points="1088.3 1924.02 1179.32 1924.02 1179.32 1252.36 1088.3 1298.4 1088.3 1924.02" />
                                <polygon class="cls-29"
                                    points="1066.68 1309.21 1088.3 1309.21 1088.3 1298.4 1077.49 1296.65 1066.68 1309.21" />
                                <path class="cls-41"
                                    d="m1424.48,1191.34h-10.07v-34.16c3.87-1.97,5.51-6.67,3.65-10.63l-9.63-20.51c-1.85,1.95-4.09,3.61-6.68,4.82-2.59,1.21-5.29,1.88-7.97,2.06l9.62,20.51c1.22,2.6,3.64,4.24,6.29,4.58v33.33h-69.57v-38.13c5.74-2.79,8.19-9.67,5.47-15.46l-13.9-29.62c-2.68,2.82-5.91,5.21-9.64,6.96-3.73,1.75-7.63,2.71-11.51,2.97l13.9,29.62c2.05,4.36,6.44,6.86,10.97,6.71v36.95h-58.54v-15.96c3.07-1.57,4.37-5.3,2.9-8.45l-7.64-16.29c-1.47,1.55-3.25,2.86-5.3,3.83-2.05.96-4.2,1.49-6.33,1.63l7.65,16.29c.82,1.74,2.32,2.94,4.03,3.44v15.51h-12.99c-13.48,0-24.41,10.93-24.41,24.41l132.66-4.19,81.46,4.19c0-13.48-10.93-24.41-24.41-24.41Z" />
                                <rect class="cls-31" x="1179.32" y="1208.43" width="355.7" height="43.94" />
                                <polygon class="cls-29"
                                    points="1066.68 1309.21 1179.32 1252.36 1179.32 1208.43 1066.68 1268.28 1066.68 1309.21" />
                                <path class="cls-20"
                                    d="m1340.95,1070.78c8.43,17.96.7,39.35-17.26,47.78-17.96,8.43-39.35.7-47.78-17.26-8.43-17.96-.7-39.35,17.26-47.78,17.96-8.43,39.35-.7,47.78,17.26Z" />
                                <path class="cls-20"
                                    d="m1277.22,1130.1c4.64,9.88.39,21.65-9.49,26.28-9.88,4.64-21.64.38-26.28-9.49-4.63-9.88-.38-21.64,9.49-26.28,9.88-4.64,21.64-.38,26.28,9.49Z" />
                                <path class="cls-20"
                                    d="m1414.83,1100.17c5.84,12.44.49,27.25-11.95,33.09-12.44,5.84-27.25.48-33.09-11.95-5.84-12.44-.49-27.25,11.95-33.09,12.44-5.84,27.25-.48,33.09,11.95Z" />
                                <polygon class="cls-16"
                                    points="870.94 1904.65 870.94 1889.72 853.86 1884.99 850.06 1886.66 849.41 1904.65 854.79 1920.34 870.94 1904.65" />
                                <path class="cls-37"
                                    d="m855.93,1419.44s-22.42,26.63-75.21,31.33c-52.79,4.7-13.27,32.58-13.27,32.58,0,0,63.62,9.16,85.85-5.76,22.23-14.93,2.63-58.14,2.63-58.14Z" />
                                <polygon class="cls-34"
                                    points="833.79 1598.37 845.91 1893.85 874.14 1893.85 899.02 1670.52 866.4 1570.46 833.79 1598.37" />
                                <polygon class="cls-16"
                                    points="980.12 1904.65 980.12 1889.72 963.04 1884.99 959.23 1886.66 958.59 1904.65 963.97 1920.34 980.12 1904.65" />
                                <path class="cls-43"
                                    d="m754.43,1404.9l-134.23,31.61c-5.27,1.24-8.54,6.52-7.3,11.8l46.02,195.4c1.24,5.27,6.52,8.54,11.8,7.3l134.23-31.61c5.27-1.24,8.54-6.52,7.3-11.8l-46.02-195.39c-1.24-5.27-6.52-8.54-11.8-7.3Z" />
                                <rect class="cls-13" x="644.1" y="1428.45" width="134.32" height="187.91"
                                    transform="translate(1752.58 2841.21) rotate(166.75)" />
                                <path class="cls-44"
                                    d="m654.71,1413.1h72.73v4.35c0,9.85-8,17.85-17.85,17.85h-37.03c-9.85,0-17.85-8-17.85-17.85v-4.35h0Z"
                                    transform="translate(1690.23 2652.06) rotate(166.75)" />
                                <rect class="cls-30" x="688.5" y="1446.53" width="59.47" height="5.24"
                                    transform="translate(1749.55 2695.07) rotate(166.75)" />
                                <rect class="cls-30" x="692.91" y="1465.27" width="59.47" height="5.24"
                                    transform="translate(1762.56 2731.03) rotate(166.75)" />
                                <rect class="cls-30" x="697.33" y="1484.01" width="59.47" height="5.24"
                                    transform="translate(1775.56 2767) rotate(166.75)" />
                                <rect class="cls-30" x="701.74" y="1502.75" width="59.47" height="5.24"
                                    transform="translate(1788.57 2802.97) rotate(166.75)" />
                                <rect class="cls-30" x="706.15" y="1521.49" width="59.47" height="5.24"
                                    transform="translate(1801.57 2838.94) rotate(166.75)" />
                                <rect class="cls-30" x="710.57" y="1540.23" width="59.47" height="5.24"
                                    transform="translate(1814.57 2874.9) rotate(166.75)" />
                                <rect class="cls-30" x="714.98" y="1558.97" width="59.47" height="5.24"
                                    transform="translate(1827.58 2910.87) rotate(166.75)" />
                                <rect class="cls-30" x="719.39" y="1577.7" width="59.47" height="5.24"
                                    transform="translate(1840.59 2946.84) rotate(166.75)" />
                                <rect class="cls-30" x="646.75" y="1459.85" width="33.74" height="38.46"
                                    transform="translate(1648.62 2766.64) rotate(166.75)" />
                                <rect class="cls-30" x="658.39" y="1509.27" width="33.74" height="38.46"
                                    transform="translate(1682.91 2861.5) rotate(166.75)" />
                                <rect class="cls-30" x="670.02" y="1558.69" width="33.74" height="38.46"
                                    transform="translate(1717.21 2956.36) rotate(166.75)" />
                                <path class="cls-16"
                                    d="m758.99,1519.79c.5.44.31,1.26-.33,1.44-4.98,1.35-20.64,5.7-20.59,7.04.07,1.6,14.15-1.94,14.98-.71.83,1.24-13,4.35-12.66,6.05s12.86-1.56,13.25-.89-11.26,5.07-11.66,6.19c-.4,1.12,12.62-2.06,13.33-1.39.71.67-7.54,5.86-7.18,6.62.36.76.48,1.33,22.39-5.03l8.52-2.87,5.69-6.1-4.26-9.08s-27.45-10.44-28.44-9.73c-.94.67-.74,1.65,6.94,8.46Z" />
                                <path class="cls-43"
                                    d="m845.91,1599l110.6,294.85,27.09-2.21s-33.72-270.32-53.9-296.03c-20.18-25.71-64.4-20.18-64.4-20.18l-19.39,23.57Z" />
                                <path class="cls-38"
                                    d="m907.62,1369.32s5.88-30.5-11.31-41.23c-17.19-10.73-34.89-8.83-46.73-1.61-11.84,7.22-18.17,31.15-12.24,44.48l39.65-14.35,30.62,12.72Z" />
                                <path class="cls-16"
                                    d="m858.18,1419.71s13.66,8.1,24.31,0h0l-2.51-19.77-21.18-4.36-.62,24.13h0Z" />
                                <path class="cls-19"
                                    d="m858.47,1408.48l.33-12.89,21.48,6.68.6,4.83c-4.77,1.73-13.83,3.83-22.42,1.38Z" />
                                <path class="cls-3"
                                    d="m844.16,1368.69c1.22,3.72-.28,7.5-3.35,8.45-3.07.95-6.55-1.3-7.77-5.02-1.22-3.72.28-7.5,3.35-8.45,3.07-.95,6.55,1.3,7.77,5.02Z" />
                                <path class="cls-16"
                                    d="m843.5,1389.85c-.8-1.62-1.45-3.33-1.93-5.11-1.4-4.77-1.9-9.76-1.98-14.09-.02-.93-.09-1.85-.18-2.78-.36-3.73-.03-7.63,1.19-11.58,3.93-12.69,16.23-21.54,29.91-21.47,18.42.09,32.42,15.25,31,32.57,2.03-.9,4.23-.97,6.09,0,3.56,1.88,4.47,6.89,2.05,11.2-2.42,4.31-7.27,6.28-10.83,4.4-.49-.26-.93-.59-1.32-.96-2.76,14.62-16.15,25.04-31.08,23.66-7.3-.68-13.68-4.06-18.29-9.08-.31-.3-.63-.64-.97-1.04-1.48-1.74-2.68-3.68-3.65-5.74Z" />
                                <path class="cls-25"
                                    d="m871.36,1368.24c-.14,1.45.95,2.74,2.45,2.88s2.82-.92,2.97-2.37c.14-1.45-.95-2.74-2.45-2.87-1.5-.14-2.82.92-2.97,2.37Z" />
                                <path class="cls-25"
                                    d="m850,1367.2c-.14,1.45.95,2.74,2.45,2.87,1.5.14,2.82-.92,2.97-2.37.14-1.45-.95-2.74-2.45-2.88-1.5-.14-2.82.92-2.97,2.37Z" />
                                <path class="cls-38"
                                    d="m868.61,1362.73c1.38-.41,2.69-.71,3.99-.88,1.3-.17,2.57-.18,3.81,0,1.23.19,2.46.49,3.63,1.05l.45.18c.15.06.29.16.43.23l.89.46c.6.32,1.15.72,1.81,1.04-.34-.61-.73-1.21-1.19-1.76-.51-.49-.98-1.07-1.61-1.45-1.17-.9-2.65-1.43-4.15-1.65-1.51-.21-3.06-.05-4.46.44-1.39.5-2.67,1.26-3.61,2.34Z" />
                                <path class="cls-38"
                                    d="m859.7,1361.9c-.83-1.16-2.05-2.02-3.38-2.64-1.34-.61-2.88-.91-4.4-.82-1.51.09-3.03.5-4.28,1.29-.67.33-1.18.86-1.74,1.31-.51.51-.95,1.07-1.34,1.65.69-.26,1.27-.61,1.9-.88l.93-.39c.16-.06.3-.14.45-.19l.47-.15c1.22-.46,2.47-.65,3.71-.74,1.25-.07,2.52.05,3.79.33,1.28.28,2.55.7,3.89,1.22Z" />
                                <path class="cls-3"
                                    d="m863.96,1361.84c.41,1.86.51,3.76.37,5.67-.07.96-.22,1.91-.48,2.88-.28.96-.64,1.93-1.41,2.83l-.33.32-.29.27c-.12.13-.3.23-.39.37-.24.26-.4.55-.49.86-.22.62,0,1.35.4,2.02.87,1.37,2.59,2.27,4.42,2.87-1.92.13-4.12-.36-5.6-2.03-.72-.81-1.2-2.01-.95-3.23.06-.3.15-.59.3-.86.12-.29.3-.52.49-.76.17-.25.41-.41.62-.62.13-.11.15-.15.22-.22l.18-.18c.48-.54.83-1.33,1.13-2.14.32-.81.5-1.7.73-2.58.39-1.78.7-3.61,1.06-5.47Z" />
                                <path class="cls-13"
                                    d="m855.55,1383.59c.91,3.23,4.89,5.62,9.62,5.53,4.73-.08,8.62-2.6,9.41-5.86l-19.04.33Z" />
                                <path class="cls-38"
                                    d="m900.72,1368.35c1.78-1.67,3.2-1.6,3.2-1.6l-1.22-9.75-3.27-5.77s-12.52-15.39-12.96-15.76c-.43-.38-9.72-5.15-10.29-5.39-.57-.24-13.22,2.18-13.22,2.18,0,0-22.56-3.7-18.33,7.86,4.23,11.56,20.81,17.05,21.63,16.5-2.76-2.52-3.32-9.96-3.32-9.96,12.06,12.1,34.3,20.45,37.76,21.7Z" />
                                <path class="cls-10"
                                    d="m776.02,1509.93c10.83,2.58,36.3,1.3,55.6-.22.16-15.96.77-30.81,2.17-41.24,4.98-37.04,22.14-49.02,22.14-49.02,17.11,2.04,29-7.09,29-7.09,22.94.28,36.21,12.71,36.21,12.71,35.25,30.4,8.57,92.59,8.57,92.59l9.67,82.17c-21.84,7.46-111.11,2.98-111.11,2.98,0,0,4.36-26.17,3.72-52.8-28.29-1.59-55.96-6.09-55.96-6.09-1.11-6.08,0-34,0-34Z" />
                                <path class="cls-33"
                                    d="m893.86,1454.55c.06,12.3-5.33,24.15-13.84,32.61-4.25,4.26-9.19,7.81-14.52,10.62-5.33,2.81-10.95,5.13-16.8,6.74-.73.21-1.44.47-2.18.65l-2.21.54c-1.48.35-2.94.75-4.43,1.07l-4.48.84-2.24.42-2.26.31c-3.01.43-6.02.89-9.06,1.11l-4.55.42c-1.52.12-3.05.17-4.57.26-12.19.63-24.45.4-36.7-.22,12.17,1.58,24.46,2.47,36.78,2.16,12.3-.34,24.69-1.65,36.6-5.18,5.97-1.69,11.75-4.08,17.22-7.06,5.44-3.03,10.54-6.76,14.79-11.35,2.16-2.25,4.04-4.77,5.73-7.39,1.62-2.66,3.02-5.46,4.13-8.36,1.05-2.93,1.83-5.94,2.29-8.99.47-3.05.64-6.16.29-9.21Z" />
                                <path class="cls-33"
                                    d="m776.02,1543.92c13.36,2.99,26.95,4.99,40.6,6.19,13.66,1.21,27.42,1.57,41.15.72,13.69-.94,27.48-2.98,40.46-7.8,6.48-2.39,12.71-5.56,18.22-9.75,5.47-4.21,10.21-9.47,13.24-15.63-3.53,5.88-8.36,10.84-13.96,14.64-5.56,3.86-11.76,6.72-18.16,8.91-6.41,2.18-13.03,3.75-19.72,4.87-6.69,1.13-13.46,1.87-20.25,2.28-13.58.89-27.23.64-40.85-.17-6.81-.42-13.61-.99-20.41-1.7-6.8-.67-13.58-1.55-20.34-2.56Z" />
                                <path class="cls-25"
                                    d="m1152.44,696.16s19.25-14.24,59.93-8.32c40.68,5.91,46.7,28.59,46.49,60.24l-3.22,25.86s-11.88-.76-23.2-33.16c0,0-25.02,24.64-34.73,20.67-9.72-3.97,5.55-21.93,5.55-21.93,0,0-41.31,39.73-68.77,37.4,0,0-19.3-51.84,2.53-67.95,0,0-15.43-.51-15.99-3.7-.56-3.19,7.96-7.19,22.59-4.2,0,0-8.82-22.13-2.77-23.86,6.06-1.73,11.6,18.95,11.6,18.95Z" />
                                <path class="cls-3"
                                    d="m1214.06,773.37c1.68,2.58,3.13,5.29,4.46,8.06,1.32,2.77,2.49,5.62,3.42,8.59.43,1.5.83,3.02.97,4.66.02.42.03.84-.01,1.29-.02.22-.08.47-.12.7-.09.25-.15.5-.32.76-.09.13-.18.26-.28.38l-.23.21c-.16.14-.31.29-.47.41-.33.24-.66.49-1,.7-1.35.87-2.78,1.5-4.22,2.05-1.46.53-2.93.98-4.45,1.28,2.73-1.38,5.49-2.76,7.82-4.53.3-.22.55-.46.82-.7l.37-.37.18-.18s.03-.07.05-.1c.18-.3.18-1.07.09-1.73-.17-1.4-.55-2.85-1-4.27-.86-2.87-1.93-5.71-2.97-8.57-1.05-2.85-2.12-5.71-3.1-8.63Z" />
                                <path class="cls-20"
                                    d="m1351.98,1610.63h0c-40.25,0-72.88-32.63-72.88-72.88v-284.54h145.77v284.54c0,40.25-32.63,72.88-72.88,72.88Z" />
                                <rect class="cls-31" x="1004.8" y="1833.61" width="646.52" height="91.34" />
                                <rect class="cls-23" x="1004.8" y="1833.61" width="174.52" height="91.34" />
                                <path class="cls-38"
                                    d="m1840.36,1391.1s12.08-11.63-1.8-24.27c0,0,8.51-15.47-8.73-20.13,0,0-2.9-26-27.02-18.35,0,0-18.85-19.27-34.3-6.39,0,0-16.63-4.98-23.01,14.2,0,0-17.33,6.36-10.37,27.7,0,0-15.1,15.13-3.34,33.83,0,0-3.95,24.51,23.23,22.63,1.47,6.63,11.44,8.51,17.41,7.16,0,0,8.68,9.06,23.66-.24,1.9,1.59,11.86,9.32,18.04,2.48,0,0,20.34,3.82,18.19-13.97,0,0,13.56-8.74,8.06-24.64Z" />
                                <polygon class="cls-16"
                                    points="1734.93 1672.13 1738.57 1903.77 1744.48 1920.49 1762.23 1903.77 1779.07 1666.2 1734.93 1672.13" />
                                <path class="cls-16"
                                    d="m1840.91,1679.97h-44.41s20.9,222.41,20.75,223.8c-.15,1.38,7.49,11.37,7.49,11.37l16.17-11.37v-223.8Z" />
                                <polygon class="cls-16"
                                    points="1734.93 1672.13 1738.57 1903.77 1744.48 1920.49 1762.23 1903.77 1779.07 1666.2 1734.93 1672.13" />
                                <path class="cls-16"
                                    d="m1840.91,1679.97h-44.41s20.9,222.41,20.75,223.8c-.15,1.38,7.49,11.37,7.49,11.37l16.17-11.37v-223.8Z" />
                                <path class="cls-43"
                                    d="m1724.32,1868.48c12.62,5.05,32.22,10.11,53.86,5.49l4.03-184.99,3-32.57c2.26,1.98,3.62,2.92,3.62,2.92l10.81,211.35s23.99,8.76,53.32,3.34c.1-12.71-7.79-206.73-7.87-215.74-.57-65.06-20.68-74.58-20.68-74.58l-34.24-8.67-7.52,1.3c-11.97-3.93-33.62-8.42-42.54,6.52-12.63,21.17-11.89,86.42-11.89,86.42,0,0-3.99,190.25-3.89,199.21Z" />
                                <path class="cls-16"
                                    d="m1751.24,1517.57l-32.11-14.86,2.92,34s-60.8-27.6-63.87-30.38c-1.02-.93-2.19-3.36-3.31-6.2-1.18-2.99-1.97-6.1-2.68-9.23-1.07-4.72-5.1-8.5-6.46-9.73-.59-.54-2.3-3.75-2.71-5.22-.28-1-1.76-.92-1.91.1l-.33,2.13c-.32,2.08.41,4.24.87,5.39l-.84-.32-1.4,14.3,1.72,12.5,9.62,7.24s84.71,60.98,92.46,53.01c8.32-8.56,8.04-52.74,8.04-52.74Z" />
                                <path class="cls-35"
                                    d="m1743.95,1445.64s-6.58,1.56-16.09,13.34c-9.51,11.77-17.99,44.34-17.99,44.34l30.37,16.59,19.76-39.34-16.06-34.94Z" />
                                <path class="cls-7"
                                    d="m1830,1633.4c-3.2,1.18-6.36,2.46-9.49,3.81-3.12,1.36-6.21,2.79-9.27,4.27-3.07,1.47-6.11,3-9.12,4.57-3.01,1.58-6.02,3.17-8.98,4.83l-.24-.57c2.24-.48,4.48-.8,6.74-1.04,2.26-.23,4.53-.32,6.8-.32,2.27,0,4.54.12,6.79.39l1.69.22,1.67.3.83.15.83.2,1.65.4-1.67-.32-.83-.16-.84-.12-1.68-.24-1.69-.16c-.56-.06-1.12-.09-1.69-.12-.56-.02-1.13-.08-1.69-.08l-1.69-.03c-.56-.01-1.13.01-1.69.02-2.25.04-4.51.2-6.75.45-2.24.25-4.48.59-6.65,1.07l-2.02.45,1.78-1.01c2.96-1.69,5.95-3.31,8.99-4.86,3.03-1.55,6.09-3.06,9.17-4.51,3.09-1.44,6.23-2.79,9.38-4.09,1.59-.63,3.18-1.26,4.79-1.83,1.6-.6,3.23-1.12,4.85-1.65Z" />
                                <path class="cls-7"
                                    d="m1740.1,1632.11c1.62.53,3.25,1.05,4.85,1.65,1.61.57,3.2,1.2,4.79,1.83,3.16,1.3,6.29,2.65,9.38,4.09,3.08,1.46,6.14,2.96,9.17,4.51,3.04,1.55,6.03,3.17,8.99,4.86l1.78,1.01-2.02-.45c-2.18-.48-4.42-.82-6.65-1.07-2.24-.25-4.49-.41-6.75-.45-.56,0-1.13-.03-1.69-.02l-1.69.03c-.56,0-1.12.06-1.69.08-.56.03-1.13.05-1.69.12l-1.69.16-1.68.24-.84.12-.83.16-1.67.32,1.65-.4.83-.2.84-.15,1.67-.3,1.69-.22c2.25-.27,4.52-.4,6.79-.39,2.27,0,4.54.09,6.8.32,2.26.24,4.5.56,6.74,1.04l-.24.57c-2.96-1.66-5.97-3.24-8.98-4.83-3.01-1.57-6.05-3.1-9.12-4.57-3.06-1.48-6.15-2.91-9.27-4.27-3.13-1.35-6.29-2.63-9.49-3.81Z" />
                                <path class="cls-46"
                                    d="m1746.93,1594.54c2.78.49,5.57.89,8.37,1.25,2.8.36,5.6.68,8.41.95,5.62.54,11.25.9,16.9,1.02,2.82.06,5.64.06,8.46,0,2.82-.08,5.64-.23,8.45-.46,2.81-.25,5.61-.57,8.4-1.02,2.78-.45,5.55-1.02,8.27-1.74-2.71.77-5.47,1.39-8.25,1.9-2.78.48-5.59.83-8.4,1.11-2.81.27-5.64.41-8.46.51-2.83.08-5.65.08-8.48.03-5.65-.15-11.3-.5-16.92-1.1-2.81-.3-5.61-.65-8.41-1.04-2.79-.41-5.58-.87-8.35-1.41Z" />
                                <path class="cls-6"
                                    d="m1810.52,1605.03c.12.33.29.63.45.94l.49.93.99,1.85,1.65,3.06,4.7,8.15c.65,1.24,6.81,11.96,8.27,14.36-1.81-2.17-4-4.31-5.48-6.69-.75-1.19-1.44-2.41-2.14-3.62-.69-1.22-1.35-2.45-2.02-3.69-1.3-2.48-2.56-4.98-3.73-7.52-.59-1.27-1.15-2.55-1.7-3.84-.27-.65-.54-1.29-.79-1.94-.25-.65-.52-1.3-.68-1.98Z" />
                                <path class="cls-39"
                                    d="m1870.29,1483.54c-13.81-16.66-29.76-34.74-43.72-41.78-5.34-2.7-18.01-3.23-25.37-4.43,0,0-19.21-2.37-38.15.13-10.22,3.74-28.07,10.07-28.3,16.13-1.17,30.24-1.51,53.43-1.34,71.2,0,.06-.51,64.45-.04,78.2,0,0,70.01,15.09,105.82,6.02,0,0,5.91-84.23-2.58-106.97l3.62,4.61s14.41-3.28,30.07-23.11Z" />
                                <path class="cls-16"
                                    d="m1868.17,1486.16c-9.5,11.55-20.01,17.68-25.28,19.61l33.85,40.55-61.93,66.77,10.9,18.99c8.61-4.18,10.55-20.02,10.55-20.02,0,0,76.64-51.25,76.64-63.5,0-16.42-44.75-62.39-44.75-62.39Z" />
                                <path class="cls-18"
                                    d="m1868.72,1485.36c-.53.6-1.01,1.23-1.57,1.81l-1.64,1.74-.81.87-.86.83-1.72,1.66c-.58.54-1.19,1.05-1.79,1.58-1.17,1.08-2.47,2-3.69,3.01-2.55,1.9-5.22,3.62-8.01,5.13l-1.05.56c-.35.18-.71.34-1.07.52-.71.35-1.44.67-2.16.97-.36.16-.73.3-1.1.44-.37.14-.73.29-1.1.42-.5.18-1.03.36-1.53.5l-3.71-4.43-4.21-4.95c-2.79-3.31-5.66-6.56-8.49-9.84-2.87-3.25-5.74-6.5-8.65-9.71-2.92-3.21-5.84-6.42-8.86-9.55,2.57,3.49,5.23,6.9,7.9,10.31,2.67,3.41,5.39,6.78,8.11,10.14,2.75,3.34,5.47,6.71,8.27,10.02l4.17,4.98,4.21,4.94.46.54.66-.17c.89-.23,1.65-.49,2.44-.79.79-.29,1.56-.6,2.31-.95s1.5-.69,2.23-1.08c.37-.19.74-.37,1.1-.57l1.07-.61c2.86-1.63,5.52-3.56,8.04-5.62l1.82-1.62c.62-.53,1.19-1.11,1.76-1.68.57-.58,1.16-1.13,1.71-1.72l1.6-1.81.8-.91.75-.95,1.48-1.9c.95-1.29,1.81-2.64,2.71-3.96l-1.57,1.82Z" />
                                <path class="cls-16"
                                    d="m1770.29,1436.77s13.9,8.24,24.73,0h0l-2.55-20.11-21.55-4.44-.63,24.55h0Z" />
                                <path class="cls-19"
                                    d="m1770.58,1425.34l.34-13.12,21.86,6.8.61,4.92c-4.85,1.76-14.07,3.9-22.81,1.4Z" />
                                <path class="cls-3"
                                    d="m1754.87,1379.45c.58,3.94-1.57,7.47-4.81,7.9-3.24.42-6.35-2.43-6.93-6.37-.58-3.94,1.57-7.47,4.81-7.9,3.24-.42,6.35,2.43,6.93,6.37Z" />
                                <path class="cls-16"
                                    d="m1750.57,1400.56c-.52-1.77-.88-3.59-1.06-5.45-.58-5.03-.22-10.12.44-14.47.14-.93.23-1.87.3-2.82.28-3.8,1.28-7.66,3.19-11.4,6.12-12.05,19.98-18.81,33.68-16.39,18.46,3.26,29.88,20.87,25.48,37.99,2.19-.55,4.41-.25,6.1,1.05,3.24,2.49,3.3,7.68.13,11.58-3.17,3.9-8.37,5.04-11.62,2.55-.45-.35-.83-.75-1.16-1.19-5.28,14.18-20.51,22.33-35.24,18.37-7.2-1.93-13.02-6.43-16.78-12.25-.26-.35-.53-.75-.8-1.2-1.19-2-2.05-4.15-2.68-6.38Z" />
                                <path class="cls-25"
                                    d="m1784.33,1383.67c-.39,1.43.48,2.91,1.96,3.3,1.48.4,2.99-.44,3.38-1.87.39-1.43-.48-2.91-1.96-3.3-1.48-.4-2.99.44-3.38,1.87Z" />
                                <path class="cls-25"
                                    d="m1760.98,1378.96c-.39,1.43.48,2.91,1.96,3.3,1.48.4,2.99-.44,3.38-1.87.39-1.43-.48-2.91-1.96-3.3-1.48-.4-2.99.44-3.38,1.87Z" />
                                <path class="cls-38"
                                    d="m1782.52,1377.67c1.45-.17,2.82-.25,4.15-.2,1.33.05,2.61.26,3.82.65,1.2.4,2.38.91,3.46,1.68l.42.26c.14.09.26.21.4.3l.81.62c.54.42,1.03.92,1.64,1.36-.24-.67-.52-1.34-.89-1.97-.43-.58-.8-1.24-1.37-1.73-1.02-1.1-2.41-1.89-3.88-2.37-1.48-.48-3.06-.57-4.54-.32-1.48.27-2.9.8-4.02,1.72Z" />
                                <path class="cls-38"
                                    d="m1771.62,1375.31c-.64-1.3-1.7-2.38-2.94-3.23-1.24-.84-2.73-1.41-4.27-1.58-1.53-.17-3.13-.02-4.52.56-.72.21-1.34.66-1.97,1.01-.59.42-1.14.91-1.63,1.42.74-.14,1.38-.39,2.06-.56l1-.23c.17-.03.32-.09.49-.11l.5-.06c1.3-.26,2.59-.23,3.85-.1,1.26.14,2.52.48,3.75.98,1.23.5,2.44,1.14,3.69,1.9Z" />
                                <path class="cls-3"
                                    d="m1775.9,1375.98c.09,1.94-.14,3.86-.6,5.75-.23.95-.55,1.88-.97,2.8-.45.91-.98,1.83-1.9,2.59l-.38.26-.34.22c-.15.11-.34.18-.45.31-.28.22-.49.48-.64.78-.33.58-.23,1.35.05,2.1.64,1.52,2.21,2.72,3.94,3.64-1.95-.2-4.07-1.07-5.26-3-.58-.93-.86-2.22-.4-3.4.11-.29.25-.57.45-.81.17-.27.39-.47.62-.67.22-.22.49-.34.73-.51.15-.09.18-.13.26-.18l.21-.15c.57-.46,1.06-1.2,1.5-1.95.46-.76.79-1.62,1.17-2.46.7-1.72,1.32-3.5,2-5.31Z" />
                                <path class="cls-13"
                                    d="m1763.73,1396.36c.36,3.4,3.94,6.47,8.7,7.21,4.76.73,9.09-1.13,10.45-4.26l-19.15-2.94Z" />
                                <polygon class="cls-6"
                                    points="1630.12 1293.66 1651.67 1778.05 1656.02 1777.93 1634.47 1293.63 1630.12 1293.66" />
                                <path class="cls-16"
                                    d="m1632.46,1496.5c-.05-.69.15-2.87.25-3.34.27-1.3,1.26-2.35,2.56-2.75l1.49-.45.13,3.34h0c-.12,2.55-.17,2.37,3.36,3.91,5.04,2.19,2.93,4.83,2.93,4.83,0,0-1.4,1.88-7.56-1.21,0,0-2.96-1.55-3.16-4.34Z" />
                                <path class="cls-16"
                                    d="m1631.94,1499.36c-.04-.65.14-2.73.24-3.18.26-1.24,1.2-2.24,2.44-2.61l1.41-.43.13,3.18h0c-.12,2.43-.17,2.26,3.2,3.72,4.8,2.08,2.79,4.6,2.79,4.6,0,0-1.33,1.79-7.2-1.15,0,0-2.82-1.48-3-4.13Z" />
                                <path class="cls-16"
                                    d="m1632.71,1503.17c-.04-.55.12-2.31.2-2.69.22-1.05,1.01-1.89,2.06-2.21l1.2-.36.11,2.69h0c-.1,2.05-.14,1.91,2.71,3.15,4.06,1.76,2.36,3.89,2.36,3.89,0,0-1.13,1.51-6.09-.97,0,0-2.39-1.25-2.54-3.49Z" />
                                <path class="cls-16"
                                    d="m1633.56,1492.39c-.05-.69.15-2.87.25-3.34.27-1.3,1.26-2.35,2.56-2.74l1.49-.45.13,3.34h0c-.12,2.55-.18,2.37,3.36,3.91,5.04,2.19,2.93,4.83,2.93,4.83,0,0-1.4,1.88-7.57-1.21,0,0-2.96-1.55-3.16-4.34Z" />
                                <path class="cls-3"
                                    d="m1637.99,1489.2c0,.56-.02,1.13.08,1.67.1.55.58.87,1.1,1.11,1.03.49,2.12.85,3.18,1.38.25.15.52.28.77.44.24.18.5.33.71.55.45.39.83.89,1.03,1.48.21.59.15,1.26-.1,1.83-.07.14-.14.28-.23.42-.13.17-.27.25-.42.35-.29.17-.6.24-.91.3-.62.09-1.23.05-1.82-.05-.59-.09-1.16-.26-1.72-.44-1.12-.38-2.17-.84-3.21-1.42-.99-.64-1.86-1.47-2.42-2.5-.27-.51-.44-1.08-.5-1.65-.05-.29,0-.57.01-.85l.07-.84.02.84c0,.28-.02.56.05.83.1.54.3,1.06.59,1.53.58.94,1.45,1.71,2.41,2.26,1.01.48,2.07.96,3.14,1.3,1.08.33,2.22.58,3.28.42.26-.05.52-.11.73-.23.1-.06.21-.13.25-.19.07-.09.13-.21.18-.32.21-.46.26-.98.1-1.46-.16-.48-.47-.93-.88-1.28-.18-.2-.43-.34-.64-.52-.23-.16-.47-.3-.71-.45-.98-.54-2.08-.96-3.1-1.51-.25-.14-.51-.3-.72-.52-.22-.21-.35-.51-.39-.8-.07-.58.02-1.14.07-1.7Z" />
                                <path class="cls-3"
                                    d="m1642.39,1498.47c.7.51,1.32,1.27,1.37,2.21.01.46-.1.92-.34,1.32-.05.09-.14.22-.25.3-.1.08-.2.15-.31.2-.22.12-.45.18-.68.24-.93.19-1.87.06-2.75-.14-.88-.22-1.73-.52-2.56-.87-.42-.17-.81-.38-1.22-.57-.43-.2-.8-.47-1.15-.75-.7-.58-1.33-1.25-1.73-2.07-.21-.4-.34-.84-.43-1.28-.02-.22-.06-.45-.05-.67l.03-.66c.09-.87.18-1.72.38-2.57-.07.86-.11,1.72-.1,2.58v.63c.02.21.07.41.1.62.11.4.25.79.46,1.15.42.72,1,1.34,1.68,1.86.34.25.69.5,1.07.67.4.18.79.38,1.19.54.8.36,1.62.65,2.46.87.83.22,1.7.34,2.53.23.39-.07.83-.21,1.01-.5.22-.34.35-.74.37-1.14.02-.41-.09-.82-.29-1.19-.2-.38-.49-.7-.8-1.02Z" />
                                <path class="cls-3"
                                    d="m1642.4,1502.55c.3.56.29,1.26.04,1.86-.07.14-.14.31-.29.44-.14.12-.29.21-.44.28-.32.15-.65.2-.99.25-1.35.11-2.63-.28-3.84-.72-.6-.24-1.19-.5-1.76-.79-.6-.28-1.13-.68-1.59-1.14-.46-.45-.87-.97-1.16-1.54-.28-.58-.45-1.21-.43-1.83.2,1.24.95,2.28,1.89,3.06.48.38.97.75,1.54.98.57.27,1.14.52,1.73.74.59.22,1.18.43,1.78.57.6.16,1.21.24,1.82.24.3-.02.6-.04.88-.14.13-.05.27-.11.38-.19.1-.06.17-.19.25-.32.31-.51.39-1.14.21-1.74Z" />
                                <path class="cls-3"
                                    d="m1641.09,1505.12c.43.38.74.93.75,1.54,0,.3-.08.6-.21.88-.03.07-.07.14-.12.21-.07.09-.13.14-.2.19-.14.1-.28.17-.43.23-.61.22-1.24.19-1.83.12-.6-.08-1.17-.24-1.73-.43-.56-.2-1.09-.42-1.62-.68-.25-.14-.53-.24-.79-.42-.25-.16-.49-.35-.7-.55-.88-.77-1.54-1.88-1.49-3.03.19,1.12.93,2.03,1.79,2.7.22.17.45.32.68.46.22.14.5.23.75.36.51.24,1.04.45,1.57.63.53.19,1.07.34,1.62.44.54.1,1.1.12,1.6,0,.12-.04.24-.08.34-.14.05-.03.1-.07.12-.09.04-.04.07-.1.11-.15.13-.22.23-.47.26-.73.04-.26,0-.53-.08-.79-.09-.26-.23-.5-.39-.74Z" />
                                <ellipse class="cls-21" cx="1637.2" cy="1328.9" rx="85.46" ry="95.18" />
                                <ellipse class="cls-26" cx="1637.2" cy="1328.9" rx="78.32" ry="87.23" />
                                <rect class="cls-16" x="1627.81" y="1392.58" width="20.37" height="22.65" />
                                <path class="cls-3"
                                    d="m1648.18,1406.15v-13.58h-20.37v11.55c4.38,2.62,10.88,4.13,20.37,2.03Z" />
                                <path class="cls-16"
                                    d="m1680.29,1352.04c-2.12-1.17-4.59-.96-6.82.3.77-22.34-15.62-41.14-36.26-40.34-20.64-.79-37.03,18-36.26,40.34-2.23-1.26-4.7-1.47-6.82-.3-4.08,2.24-5.34,8.64-2.83,14.31,2.51,5.67,7.86,8.45,11.93,6.21.57-.31,1.07-.71,1.53-1.17,2.34,18.47,16.19,32.32,32.46,32.06,16.26.26,30.12-13.59,32.45-32.06.46.46.96.86,1.53,1.17,4.08,2.24,9.42-.54,11.93-6.21,2.51-5.67,1.25-12.07-2.83-14.31Z" />
                                <path class="cls-25"
                                    d="m1612.4,1303.14s10.22-9.63,33.45-8.08c23.23,1.56,27.65,15.06,28.97,34.34l-1.36,22.94s-6.03-6.91-13.89-26.06c0,0-13.01,16.26-18.67,14.33s2.14-13.63,2.14-13.63c0,0-26.5,25.39-42.11,25.36,0,0-8.26-29.72,3.33-40.62,0,0-8.73.46-9.2-1.45-.46-1.91,4.17-4.78,12.56-3.69,0,0-5.98-13.03-2.64-14.39,3.34-1.36,7.41,10.95,7.41,10.95Z" />
                                <path class="cls-13"
                                    d="m1650.53,1378.44c-.9,4.48-5.5,8-11.14,8.19-5.64.19-10.43-3.01-11.57-7.42l22.72-.77Z" />
                                <path class="cls-16"
                                    d="m1635.2,1413.52s-7.39,1.7-7.39,1.7v.28c3.08.41,6.21.63,9.39.63,3.72,0,7.39-.3,10.97-.86v-.04l-1.17-1.02s-11.76-.68-11.81-.68Z" />
                                <path class="cls-38"
                                    d="m1602.08,1285.24l-8.57-20.89,3.45-.09,4.3,10.86c1.59,4.04,2.24,5.96,2.62,7.18h.05c.27-1.08.95-3.02,2.26-7.02l4.01-11.35,3.35-.08-7.85,21.3-3.61.09Z" />
                                <path class="cls-38"
                                    d="m1634.98,1273.8c.12,5.93-3.37,11.15-9.85,11.31-6.17.15-10.05-4.63-10.18-10.81-.12-5.84,3.68-11.02,9.84-11.17,6.18-.15,10.06,4.85,10.18,10.68Zm-16.71.34c.09,4.41,2.49,8.22,6.94,8.11,4.44-.11,6.55-4,6.46-8.31-.09-4.22-2.44-8.07-6.96-7.96-4.24.11-6.53,3.92-6.44,8.16Z" />
                                <path class="cls-38"
                                    d="m1643.46,1266l-7.09.18-.06-2.9,17.31-.43.06,2.9-7.08.18.37,18.19-3.15.08-.37-18.19Z" />
                                <path class="cls-38"
                                    d="m1671.26,1273.9l-11.17.28.14,6.71,12.34-.31-.34,2.9-15.07.38-.42-21.09,14.89-.37.06,2.89-11.76.29.12,5.7,11.17-.28.06,2.89Z" />
                                <path class="cls-38"
                                    d="m1813.52,1350.76l.85,19.39-45.34-10.93s-4.96,4.42-5.71,4.33c-.75-.09-6.51-2.54-6.29-3.36.22-.83,15.95-21.72,15.95-21.72,0,0,15.03,3.4,16.37,3.76,1.34.36,24.17,8.53,24.17,8.53Z" />
                                <path class="cls-21"
                                    d="m1813.54,1381.12s-23.01-20.34-61.29-12.06c0,0-.04-.16-.09-.43-1.07-5.53,2.39-10.9,7.83-12.38,8.76-2.38,27.8-4.28,52.43,12.36,4.06,2.74,4.85,8.53,1.52,12.11-.13.13-.26.27-.39.4Z" />
                                <rect class="cls-16" x="2042.42" y="1428.55" width="20.19" height="48.9"
                                    transform="translate(-173.25 282.53) rotate(-7.56)" />
                                <path class="cls-16"
                                    d="m2085.26,1381.57c-2.22-.75-4.62-.25-6.66,1.15-1.86-19.79-20.14-34.21-40.3-30.83-20.35,1.99-34.23,20.68-30.87,40.27-2.34-.82-4.78-.68-6.73.62-3.74,2.5-4.23,8.31-1.11,12.98,3.13,4.67,8.7,6.42,12.44,3.92.52-.35.97-.76,1.36-1.23,4.45,15.97,19.67,26.37,35.6,24.03,15.99-1.89,27.97-15.9,28.1-32.48.5.34,1.04.63,1.63.83,4.26,1.44,9.18-1.71,10.98-7.03,1.8-5.32-.19-10.8-4.45-12.24Z" />
                                <path class="cls-25"
                                    d="m2034.95,1395.63c.31,1.64-.77,3.22-2.41,3.53-1.64.31-3.22-.77-3.53-2.41-.31-1.64.77-3.21,2.41-3.53,1.64-.31,3.22.77,3.53,2.41Z" />
                                <path class="cls-25"
                                    d="m2060.77,1392.49c.31,1.64-.77,3.22-2.41,3.53-1.64.31-3.22-.77-3.53-2.41-.31-1.64.77-3.22,2.41-3.53,1.64-.31,3.22.77,3.53,2.41Z" />
                                <path class="cls-25"
                                    d="m2037.43,1389.08c-1.57-.32-3.05-.54-4.5-.6-1.45-.06-2.86.06-4.21.38-1.34.34-2.67.8-3.9,1.57l-.48.26c-.16.09-.3.21-.46.3l-.94.62c-.63.43-1.2.94-1.9,1.37.31-.73.68-1.45,1.13-2.13.52-.61.97-1.32,1.63-1.82,1.2-1.14,2.78-1.9,4.42-2.31,1.65-.4,3.38-.36,4.98.05,1.59.43,3.09,1.16,4.24,2.3Z" />
                                <path class="cls-25"
                                    d="m2049.49,1387.43c.8-1.4,2.05-2.51,3.46-3.35,1.42-.83,3.09-1.33,4.78-1.38,1.68-.05,3.41.26,4.88,1.04.77.3,1.4.87,2.06,1.32.61.53,1.16,1.13,1.66,1.75-.79-.23-1.48-.57-2.19-.81l-1.07-.34c-.18-.05-.34-.13-.52-.17l-.53-.12c-1.39-.4-2.8-.49-4.18-.46-1.39.04-2.78.31-4.16.76-1.39.45-2.75,1.06-4.18,1.79Z" />
                                <path class="cls-8"
                                    d="m2076.61,1343.71c-7.3-11.67-33.58-17.96-49.3-13.67,0,0,.48,4.06,2.1,6.13-1.88-1.85-9.11-7.29-24.63-1.39,0,0,2.85,4.95,4.3,6.78,0,0-5.6.71-10.45-.89,0,0-3.93,9.25,1.12,17.02l-5.71-1.45s4.26,18.6,7.99,29.85h0c.69,3.47,1.29,5.65,1.29,5.65.29-.03,3.39-.89,8.24,2.86.26-.18.53-.37.84-.58,3.34-2.28,1.92-18.51,6.74-25.73,9.25-5.45,30.78-9.01,38.76-7.55,9.3,1.7,12.45,23.44,16.92,25.01.35.12.66.23.96.34,2.83-5.1,6.92-4.82,7.21-4.87,0,0,.93-25.85-6.38-37.51Z" />
                                <path class="cls-3"
                                    d="m2043.44,1385.61c1.25,1.52,2.35,3.14,3.38,4.81,1.03,1.67,1.97,3.4,2.76,5.22.38.92.73,1.86.94,2.89.04.26.08.53.08.82,0,.14-.02.3-.03.45-.04.17-.06.33-.15.5-.05.09-.1.17-.15.26l-.13.15c-.09.1-.18.2-.27.29-.19.17-.38.36-.58.51-.8.64-1.66,1.14-2.54,1.59-.89.43-1.79.83-2.73,1.12,1.64-1.06,3.29-2.13,4.65-3.41.17-.16.32-.33.47-.5l.21-.26.1-.13s.01-.05.02-.07c.09-.2.04-.69-.06-1.11-.21-.88-.55-1.77-.93-2.64-.74-1.76-1.62-3.49-2.47-5.24-.87-1.74-1.74-3.48-2.56-5.26Z" />
                                <path class="cls-13"
                                    d="m2055.65,1409.85c-.33,3.08-3.51,5.84-7.71,6.44-4.21.6-8.03-1.14-9.22-4.01l16.93-2.43Z" />
                                <path class="cls-16"
                                    d="m2026.18,1442.98l49.25-6.53-10.44,23.73s-21.94,3.93-24.1,3.2c-2.16-.74-14.71-20.39-14.71-20.39Z" />
                                <path class="cls-43"
                                    d="m2013.98,1595.53s-21.78,194.24-18.25,261.94l38.47,4.58,40.06-224.73,5.07.2,25.81,226.03h34.92s5.77-225.64-13.07-289.21c-18.84-63.57-113.01,21.19-113.01,21.19Z" />
                                <path class="cls-16"
                                    d="m2027.52,1871.95l-.8,28.13-18.68,13.54s-7.09-13.51-6.91-15.16c.17-1.65,0-33.91,0-33.91l26.39,7.4Z" />
                                <path class="cls-16"
                                    d="m2111.64,1871.95l.8,28.13,18.68,13.54s6.11-13.51,5.94-15.16c-.17-1.65.98-33.91.98-33.91l-26.39,7.4Z" />
                                <path class="cls-40"
                                    d="m1994.63,1854.94l40.47,4.82c1.12.13,1.89,1.19,1.67,2.29l-2.74,14.27c-.19,1.01-1.15,1.7-2.17,1.55l-37.91-5.24c-.97-.13-1.68-.97-1.67-1.94l.17-13.86c.01-1.15,1.02-2.04,2.17-1.9Z" />
                                <path class="cls-16"
                                    d="m1970.56,1481.57l12.5-36.63-10.39-2.32c-22.02-.67-42.79-10.95-46.15-14.44-7.12-7.41,18-57.04,18-57.04l-19.44-3.93s-44.72,59.94-25.64,80.42c19.08,20.48,65.8,33.46,65.8,33.46l5.32.49Z" />
                                <path class="cls-16"
                                    d="m2139.1,1459.21l-21.61-32.11,9.43-4.95c21.09-6.38,38.46-21.73,40.79-25.98,4.94-9.01-32.25-50.37-32.25-50.37l17.75-8.87s58.8,46.21,45.72,70.95c-13.08,24.75-54.8,49.46-54.8,49.46l-5.01,1.86Z" />
                                <path class="cls-40"
                                    d="m2143.47,1856.02l-40.47,4.82c-1.12.13-1.89,1.19-1.67,2.29l2.74,14.27c.19,1.01,1.15,1.7,2.17,1.55l37.91-5.24c.97-.13,1.68-.97,1.67-1.94l-.17-13.86c-.01-1.15-1.02-2.04-2.17-1.9Z" />
                                <path class="cls-20"
                                    d="m2147.98,1458.88l-20.79-39.17c-12.78,5.8-32.75,11.02-42.97,13.49-4.23,1.02-8.27,2.73-11.96,5.03-.14.09-.28.17-.41.26-12.47,7.73-27.62,9.74-41.68,5.53-.15-.05-.31-.09-.46-.14-4.17-1.26-8.51-1.86-12.86-1.74-10.5.28-31.15.45-45-1.82l-9.86,43.24c21.2,4.54,40.36,3.6,40.36,3.6l6.28,124.45h0c42.94,3.96,86.22-1.7,126.7-16.57l1.01-.37-26.38-121.79s18.75-4.09,38.03-13.99Z" />
                                <path class="cls-13"
                                    d="m2185.18,1332.73l-301.1,39.94c-6.22.83-11.93-3.55-12.76-9.77l-21.22-159.96c-.83-6.22,3.55-11.93,9.77-12.76l301.1-39.94c6.22-.83,11.93,3.55,12.76,9.77l21.22,159.96c.83,6.22-3.55,11.93-9.77,12.76Z" />
                                <path class="cls-16"
                                    d="m1946.18,1364.4s5.59-2.22,5.74-6.84c.15-4.62,3.25-2.48,3.52-.47.27,2.01,3.53,11.17-10.92,14.04-14.45,2.87-19.44-3.93-19.44-3.93l21.11-2.8Z" />
                                <path class="cls-16"
                                    d="m2132.09,1339.74s-5.97-.69-7.33-5.11c-1.35-4.42-3.78-1.54-3.52.47.27,2.01-.49,11.7,14.21,10.71,14.7-.99,17.75-8.86,17.75-8.86l-21.11,2.8Z" />
                                <rect class="cls-30" x="1873.69" y="1201.6" width="284.12" height="10.9"
                                    transform="translate(-141.21 275.52) rotate(-7.56)" />
                                <rect class="cls-30" x="1878.08" y="1234.7" width="284.12" height="10.9"
                                    transform="translate(-145.52 276.39) rotate(-7.56)" />
                                <rect class="cls-30" x="1882.47" y="1267.81" width="284.12" height="10.9"
                                    transform="translate(-149.84 277.25) rotate(-7.56)" />
                                <rect class="cls-30" x="1932.64" y="1300.91" width="192.56" height="10.9"
                                    transform="translate(-154.15 278.12) rotate(-7.56)" />
                                <path class="cls-9"
                                    d="m2395.19,1946.75H215.32c-6.27,0-11.35-5.08-11.35-11.35h0c0-6.27,5.08-11.35,11.35-11.35h2179.87c6.27,0,11.35,5.08,11.35,11.35h0c0,6.27-5.08,11.35-11.35,11.35Z" />
                                <path class="cls-16"
                                    d="m549.46,1410.55l1,14.3s22.47,6.33,22.93,6.15c.46-.18,5.42-3.1,5.42-3.1l-.6-6.27s-.26-5.92.06-7.25c.32-1.33-25.06-6.49-25.06-6.49l-3.75,2.67Z" />
                                <path class="cls-11"
                                    d="m580.74,1428.57s61.51,17.92,89.11,73.37c2.67,5.37,1.99,11.81-1.81,16.45-8.37,10.21-27,28.04-61.92,40.23,0,0-6.54-2.18-7.35-10.62,0,0,33.23-30.24,41.68-37.32l-46.58-36.5-13.12-45.61Z" />
                                <path class="cls-16"
                                    d="m596.65,1554.58l10.79-7.27,5.34,8.86s-7.45,27.65-8.2,35.31c0,0-2.72.86-3.1-.72-.38-1.58-4.83-36.17-4.83-36.17Z" />
                                <path class="cls-38"
                                    d="m529.19,1375.98s-6.97-28.6,9.64-39.31c16.61-10.71,34.2-9.52,46.19-3.1,11.99,6.42,19.17,28.8,13.79,41.58l-39.79-12.21-29.83,13.04Z" />
                                <polygon class="cls-16"
                                    points="595.73 1905.64 588.57 1881.39 611.81 1878.92 613.23 1880.52 617.13 1902.4 606.15 1913.46 595.73 1905.64" />
                                <polygon class="cls-16"
                                    points="450.24 1875.45 462.33 1853.24 480.51 1867.93 480.38 1870.06 467.66 1888.28 452.07 1888.35 450.24 1875.45" />
                                <path class="cls-16"
                                    d="m425.12,1378.34c-.31.55-1.11.54-1.4-.03-2.22-4.37-9.3-18.06-10.53-17.75-1.47.37,4.55,12.76,3.56,13.77-.99,1.01-6.56-11.23-8.07-10.58-1.51.65,3.94,11.64,3.4,12.13-.54.5-6.89-9.47-8.01-9.62-1.12-.15,4.36,11.31,3.88,12.1-.49.79-6.9-5.86-7.54-5.38-.63.48-1.14.7,9.01,19.82l4.32,7.36,6.77,4.1,7.6-5.72s4.36-27.51,3.52-28.29c-.81-.74-1.67-.37-6.51,8.08Z" />
                                <path class="cls-43"
                                    d="m528.29,1563.14s-33.07,42.64-25.24,110.52c7.83,67.88,6.09,92.25,6.09,92.25,0,0-42.64,39.16-55.7,95.73,0,0,18.71,13.05,31.33,15.23,0,0,62.66-95.73,67.44-107.04,4.79-11.31,16.1-204.94,16.1-204.94l-40.03-1.74Z" />
                                <path class="cls-43"
                                    d="m558.63,1592.11l7.07,130.57s10.44,138.08,23.79,167.08h29.59l-14.5-324.31h-44.09l-1.85,26.66Z" />
                                <path class="cls-20"
                                    d="m612.27,1481.84c-2.16-20.06-12.19-38.31-27.65-50.94-1.88-1.53-4.08-2.62-6.44-3.18-6.4-1.53-14.76-1.83-18.85-1.87h-13.46s-21.61,1.2-31.22,4.2c-9.61,3-47.43,19.81-51.63,17.41s-33.62-55.84-33.62-55.84l-16.21,8.41s10.21,74.78,38.42,80.32c28.22,5.54,55.84-1.67,55.84-1.67,0,0,5.4,75.05,19.21,88.26,0,0,54.53,3.7,74.8,1.36,3.68-.42,6.61-3.25,7.2-6.91,2.15-13.4,6.94-48.69,3.61-79.56Z" />
                                <path class="cls-16"
                                    d="m594.86,1441.03c-3.07-3.66-6.48-7.05-10.22-10.1-1.88-1.54-4.09-2.63-6.46-3.2-6.4-1.53-14.76-1.83-18.86-1.87h-13.46s-3.68.21-8.67.66c10.87,8.3,31.22,19.51,57.66,14.52Z" />
                                <path class="cls-3"
                                    d="m548.94,1405.95s.68,5.26,1.12,11.63c5.75,4.65,13.18,7.03,20.93,6.03,2.55-.33,4.97-1.01,7.23-1.98-.18-4.15-.12-8,.52-9.84,1.77-5.07-29.8-5.84-29.8-5.84Z" />
                                <path class="cls-3"
                                    d="m593.64,1380.2c-1.42,3.85-.07,7.89,3.01,9.02,3.08,1.13,6.72-1.07,8.14-4.92,1.42-3.85.07-7.89-3.01-9.02-3.08-1.13-6.72,1.07-8.14,4.92Z" />
                                <path class="cls-16"
                                    d="m593.31,1402.44c.89-1.67,1.63-3.43,2.2-5.27,1.65-4.94,2.39-10.16,2.67-14.7.06-.97.18-1.94.31-2.91.55-3.9.39-8.01-.67-12.21-3.4-13.5-15.49-23.34-29.4-23.89-18.74-.74-33.68,14.54-33.06,32.79-2.02-1.03-4.26-1.21-6.19-.27-3.7,1.81-4.87,7.03-2.61,11.66s7.1,6.92,10.8,5.11c.51-.25.97-.57,1.39-.95,2.12,15.47,15.25,27.01,30.49,26.24,7.46-.38,14.11-3.64,19.02-8.7.33-.3.68-.64,1.04-1.04,1.59-1.76,2.9-3.74,3.99-5.86Z" />
                                <path class="cls-25"
                                    d="m564.79,1380.61c.08,1.64-1.18,3.04-2.82,3.13-1.64.08-3.04-1.18-3.13-2.83-.08-1.64,1.18-3.04,2.82-3.13,1.64-.08,3.04,1.18,3.13,2.83Z" />
                                <path class="cls-25"
                                    d="m591.25,1380.61c.08,1.64-1.18,3.04-2.82,3.13-1.64.08-3.04-1.18-3.13-2.83-.08-1.64,1.18-3.04,2.83-3.13,1.64-.08,3.04,1.18,3.13,2.83Z" />
                                <path class="cls-38"
                                    d="m567.29,1375.64c-1.35-.72-2.76-1.25-4.2-1.61-1.44-.34-2.9-.47-4.34-.33-.72.06-1.43.21-2.13.4-.35.09-.69.22-1.04.34-.17.06-.34.14-.51.21-.17.07-.34.13-.51.22-1.33.63-2.59,1.47-3.81,2.39.91-1.24,2.07-2.31,3.42-3.13.67-.41,1.39-.75,2.15-1,.75-.25,1.54-.43,2.33-.5,1.59-.15,3.2.07,4.68.6.74.26,1.45.6,2.12,1,.66.4,1.3.86,1.84,1.41Z" />
                                <path class="cls-38"
                                    d="m579.3,1375.64c.54-.55,1.18-1,1.84-1.41.67-.39,1.38-.74,2.12-1,1.48-.53,3.09-.75,4.68-.6.79.07,1.58.25,2.33.5.76.25,1.48.59,2.15,1,1.34.82,2.51,1.89,3.42,3.13-1.23-.93-2.48-1.76-3.81-2.39-.16-.09-.34-.15-.51-.22-.17-.07-.33-.15-.51-.21-.35-.12-.69-.25-1.04-.34-.7-.2-1.41-.34-2.13-.4-1.44-.14-2.91,0-4.34.33-1.43.36-2.84.89-4.2,1.61Z" />
                                <path class="cls-13"
                                    d="m507.88,1478.21c.76-.79,1.48-1.69,2.15-2.6.66-.92,1.28-1.87,1.83-2.87.56-.99,1.06-2.01,1.5-3.06.46-1.05.79-2.14,1.14-3.25-.15,1.14-.37,2.29-.73,3.39-.16.56-.37,1.1-.58,1.64-.23.53-.45,1.07-.72,1.59-.52,1.04-1.11,2.05-1.79,3-.54.77-1.11,1.5-1.76,2.2.58.12,1.19.19,1.79.22.83.04,1.67,0,2.5-.12.42-.05.82-.15,1.23-.23.4-.12.81-.22,1.2-.38.8-.27,1.55-.68,2.3-1.1-.66.54-1.37,1.06-2.16,1.42-.78.39-1.62.67-2.47.85-.86.18-1.74.28-2.62.26-.89-.01-1.75-.1-2.64-.33l-.63-.17.47-.49Z" />
                                <path class="cls-46"
                                    d="m597.49,1609.45c-1.78,1.73-3.5,3.52-5.18,5.35-1.67,1.83-3.3,3.7-4.9,5.6-1.6,1.89-3.17,3.81-4.71,5.76-1.53,1.95-3.06,3.9-4.53,5.89l-.33-.32c1.35-.97,2.74-1.84,4.17-2.65,1.44-.81,2.92-1.53,4.43-2.18,1.51-.66,3.06-1.23,4.63-1.69l1.19-.34,1.2-.28.6-.14.61-.1,1.21-.2-1.2.26-.6.13-.59.16-1.18.32-1.17.38c-.39.12-.77.26-1.16.41-.38.15-.77.27-1.15.43l-1.13.47c-.38.15-.75.33-1.12.5-1.49.68-2.93,1.44-4.35,2.25-1.41.81-2.8,1.69-4.11,2.65l-1.21.89.88-1.21c1.47-2.01,2.97-3.99,4.53-5.92,1.55-1.94,3.14-3.85,4.76-5.74,1.63-1.88,3.31-3.71,5.02-5.51.87-.89,1.74-1.78,2.64-2.63.88-.87,1.81-1.7,2.74-2.53Z" />
                                <path class="cls-46"
                                    d="m555.81,1631.44c-1.91-2.58-3.87-5.12-5.89-7.6-2.02-2.49-4.08-4.94-6.18-7.36-2.11-2.41-4.3-4.75-6.52-7.06-1.13-1.14-2.26-2.28-3.43-3.37-1.15-1.12-2.35-2.17-3.55-3.24,2.31,2.22,4.54,4.51,6.72,6.85,2.17,2.35,4.29,4.75,6.36,7.18,2.08,2.43,4.12,4.89,6.12,7.39,1.61,2.03,3.22,4.05,4.79,6.11-1.27-.83-2.56-1.61-3.88-2.35-1.86-1.03-3.78-1.94-5.73-2.78-1.95-.84-3.95-1.56-5.99-2.14l-1.53-.42-1.55-.35-.77-.17-.78-.13-1.57-.25,1.55.33.78.16.77.2,1.53.4,1.51.48c.51.15,1,.33,1.5.52.49.18,1,.34,1.48.54l1.47.59c.49.19.97.42,1.45.63,1.92.86,3.8,1.83,5.63,2.87,1.83,1.04,3.63,2.16,5.32,3.39l1.57,1.14-1.15-1.55Z" />
                                <path class="cls-4"
                                    d="m567.85,1397.96s3.5-1.25,6.79.9c0,0,3.56-2.23,6.36-.1,0,0-1.3,5.3-7.14,4.94-5.84-.36-6-5.74-6-5.74Z" />
                                <path class="cls-3"
                                    d="m564.79,1396.07c.66.54,1.35,1.03,2.07,1.46.71.44,1.46.84,2.22,1.18,1.53.67,3.14,1.14,4.79,1.28,1.65.15,3.32-.06,4.91-.54,1.59-.51,3.09-1.3,4.5-2.25-.63.57-1.31,1.1-2.03,1.56-.72.46-1.51.83-2.31,1.16-.81.3-1.66.52-2.52.65-.86.11-1.74.13-2.61.07-1.74-.16-3.43-.68-4.95-1.48-1.53-.8-2.94-1.82-4.08-3.08Z" />
                                <path class="cls-3"
                                    d="m575.81,1379.24c.84,1.35,1.55,2.77,2.2,4.22.65,1.45,1.22,2.94,1.66,4.49.21.78.39,1.57.45,2.42,0,.21,0,.44-.02.67-.01.12-.05.24-.07.36-.05.13-.08.25-.17.39-.05.07-.1.13-.15.19l-.12.11c-.08.07-.16.14-.25.21-.17.12-.34.25-.52.35-.71.43-1.45.74-2.21,1.01-.76.25-1.53.47-2.31.61,1.43-.68,2.87-1.36,4.1-2.25.16-.11.29-.23.43-.35l.19-.19.09-.09s.01-.04.03-.05c.1-.15.11-.55.07-.9-.07-.72-.25-1.48-.46-2.22-.41-1.49-.93-2.98-1.43-4.47-.51-1.49-1.03-2.98-1.5-4.5Z" />
                                <path class="cls-38"
                                    d="m532.1,1369.92l2.52-2.3,1.11-7.47,7.37-17.48,36.76-5.66s-.47,2.88-.94,6.02c4.28,1.78,10.75,4.43,10.75,4.43,0,0-21.2,23.98-54.28,28.79,0,0-2.92-1.75-6.19-.27l2.9-6.06Z" />
                                <path class="cls-38"
                                    d="m553.73,1332.17s-4-36.75-33.11-39.66c-29.11-2.91-42.21,10.55-60.03,2.91,0,0-2.55,38.93,33.11,31.65,35.66-7.28,53.48,12.38,53.48,12.38l6.55-7.28Z" />
                                <path class="cls-14"
                                    d="m2025.88,753.08c-3.3-14.37-16.16-25.09-31.54-25.09-2.82,0-5.56.36-8.17,1.04-7.59-16.23-24.05-27.47-43.15-27.47-4.94,0-9.7.75-14.17,2.15-10.28-17.02-28.95-28.4-50.29-28.4-25.38,0-47,16.11-55.19,38.66-5.8-3.23-12.47-5.08-19.58-5.08-22.25,0-40.29,18.04-40.29,40.29,0,1.32.07,2.62.19,3.91h262.19Z" />
                                <path class="cls-14"
                                    d="m833.01,646.09c-4.56-19.84-22.31-34.64-43.53-34.64-3.9,0-7.67.5-11.28,1.44-10.47-22.4-33.2-37.92-59.56-37.92-6.81,0-13.39,1.04-19.57,2.96-14.19-23.5-39.97-39.21-69.42-39.21-35.04,0-64.88,22.24-76.19,53.37-8-4.46-17.22-7.01-27.03-7.01-30.71,0-55.61,24.9-55.61,55.61,0,1.82.09,3.62.27,5.4h361.93Z" />
                                <rect class="cls-32" x="1220.88" y="1707.13" width="250.58" height="17.02" />
                                <rect class="cls-32" x="1220.88" y="1754.2" width="250.58" height="17.02" />
                                <rect class="cls-20" x="335.31" y="1273.81" width="52.17" height="16.87"
                                    transform="translate(577.12 -32.37) rotate(25.06)" />
                                <rect class="cls-20" x="857.53" y="496.51" width="52.17" height="16.87"
                                    transform="translate(297.04 -326.73) rotate(25.06)" />
                                <rect class="cls-20" x="2174.73" y="938.25" width="52.17" height="16.87"
                                    transform="translate(608.15 -843.06) rotate(25.06)" />
                                <rect class="cls-20" x="2085.56" y="420.91" width="52.17" height="16.87"
                                    transform="translate(380.61 -853.96) rotate(25.06)" />
                                <rect class="cls-20" x="1443.55" y="530.29" width="52.17" height="16.87"
                                    transform="translate(366.51 -571.75) rotate(25.06)" />
                                <rect class="cls-20" x="1301.98" y="149.04" width="52.17" height="16.87"
                                    transform="translate(191.7 -547.68) rotate(25.06)" />
                                <rect class="cls-10" x="1096.92" y="302.17" width="52.17" height="16.87"
                                    transform="translate(377.34 -584.71) rotate(34.75)" />
                                <rect class="cls-10" x="291.05" y="705.76" width="52.17" height="16.87"
                                    transform="translate(463.66 -53.39) rotate(34.75)" />
                                <rect class="cls-10" x="2124.14" y="763.51" width="52.17" height="16.87"
                                    transform="translate(823.51 -1087.94) rotate(34.75)" />
                                <rect class="cls-10" x="1730.21" y="904.54" width="52.17" height="16.87"
                                    transform="translate(833.63 -838.25) rotate(34.75)" />
                                <rect class="cls-10" x="1882.37" y="70.58" width="52.17" height="16.87"
                                    transform="translate(385.43 -1073.73) rotate(34.75)" />
                                <rect class="cls-10" x="649.17" y="213.96" width="52.17" height="16.87"
                                    transform="translate(247.2 -345.23) rotate(34.75)" />
                                <rect class="cls-10" x="126.46" y="1228.96" width="52.17" height="16.87"
                                    transform="translate(732.54 133.76) rotate(34.75)" />
                                <rect class="cls-21" x="363.84" y="1070.27" width="52.17" height="16.87"
                                    transform="translate(-659.78 1541.06) rotate(-93.9)" />
                                <rect class="cls-21" x="2347.15" y="1110.29" width="52.17" height="16.87"
                                    transform="translate(1418.45 3562.53) rotate(-93.9)" />
                                <rect class="cls-21" x="1541.11" y="302.17" width="52.17" height="16.87"
                                    transform="translate(1363.83 1895.29) rotate(-93.9)" />
                                <rect class="cls-21" x="593" y="542.22" width="52.17" height="16.87"
                                    transform="translate(111.79 1205.74) rotate(-93.9)" />
                                <rect class="cls-21" x="117.42" y="1494.73" width="52.17" height="16.87"
                                    transform="translate(-1346.43 1748.53) rotate(-93.9)" />
                                <rect class="cls-38" x="235.97" y="938.25" width="52.17" height="16.87"
                                    transform="translate(887.49 1704.12) rotate(155.92)" />
                                <rect class="cls-38" x="1.17" y="1371.51" width="52.17" height="16.87"
                                    transform="translate(615.08 2628.72) rotate(155.92)" />
                                <rect class="cls-38" x="491.86" y="833.15" width="52.17" height="16.87"
                                    transform="translate(1334.15 1398.68) rotate(155.92)" />
                                <rect class="cls-38" x="444.74" y="390.13" width="52.17" height="16.87"
                                    transform="translate(1063.27 570.39) rotate(155.92)" />
                                <rect class="cls-38" x="867.96" y="327.25" width="52.17" height="16.87"
                                    transform="translate(1847.25 277.45) rotate(155.92)" />
                                <rect class="cls-38" x="1077.48" y="44.07" width="52.17" height="16.87"
                                    transform="translate(2132.54 -349.75) rotate(155.92)" />
                                <rect class="cls-38" x="1598.88" y="9.91" width="52.17" height="16.87"
                                    transform="translate(3116.06 -627.79) rotate(155.92)" />
                                <rect class="cls-38" x="1868.61" y="327.25" width="52.17" height="16.87"
                                    transform="translate(3761.51 -130.76) rotate(155.92)" />
                                <rect class="cls-38" x="2297.89" y="721.36" width="52.17" height="16.87"
                                    transform="translate(4743.5 448.07) rotate(155.92)" />
                                <rect class="cls-38" x="2012.64" y="1113.53" width="52.17" height="16.87"
                                    transform="translate(4357.79 1314.65) rotate(155.92)" />
                                <rect class="cls-38" x="2149.16" y="220.38" width="52.17" height="16.87"
                                    transform="translate(4254.6 -449.63) rotate(155.92)" />
                                <path class="cls-13"
                                    d="m477.03,1923.49l-42.8-31c-1.32-.96-1.62-2.81-.66-4.13h0c.96-1.32,2.81-1.62,4.13-.66l42.8,31.01c1.32.96,1.62,2.81.66,4.13h0c-.96,1.32-2.81,1.62-4.13.66Z" />
                                <path class="cls-25"
                                    d="m448.03,1872.99l-11.23,12.18c-1.38,1.5-1.55,3.66-.34,4.53l41.94,30.38c1.09.79,2.66.89,4.16.03,1.54-.89,3.08-2.78,3.13-6.79.09-7.8-10.68-17.69-13.81-26.41-.18-.5-.51-.94-.94-1.25l-18.84-13.65c-1.09-.79-2.81-.37-4.06.98Z" />
                                <path class="cls-13"
                                    d="m463.05,1891.74h0c-.17-.41.09-1,.55-1.26,2.14-1.23,7.94-3.81,12.51.9.26.27.18.82-.17,1.2h-.01c-.34.38-.8.44-1.06.18-4.11-4.2-9.14-1.87-10.91-.82-.38.22-.76.14-.9-.2Z" />
                                <path class="cls-13"
                                    d="m466.17,1896.61h0c-.17-.41.09-1,.55-1.26,2.14-1.23,7.94-3.81,12.51.9.26.27.18.82-.17,1.2h-.01c-.34.38-.8.44-1.06.18-4.11-4.2-9.14-1.87-10.91-.82-.38.22-.76.14-.9-.2Z" />
                                <path class="cls-13"
                                    d="m469.06,1901.14h0c-.17-.41.09-1,.55-1.26,2.15-1.23,7.94-3.81,12.51.9.26.27.18.82-.17,1.2h-.01c-.34.38-.8.44-1.06.18-4.11-4.2-9.14-1.87-10.91-.82-.38.22-.76.14-.9-.2Z" />
                                <path class="cls-13"
                                    d="m644.38,1924.52l-52.85-.03c-1.63,0-2.96-1.33-2.96-2.96h0c0-1.63,1.33-2.96,2.96-2.96l52.85.03c1.63,0,2.96,1.33,2.96,2.96h0c0,1.63-1.33,2.96-2.96,2.96Z" />
                                <path class="cls-25"
                                    d="m591.27,1900.6l-1.96,16.45c-.24,2.03.89,3.87,2.38,3.87l51.78.03c1.35,0,2.68-.84,3.38-2.42.73-1.62.87-4.05-1.44-7.33-4.5-6.37-19.02-8.07-26.67-13.3-.44-.3-.96-.46-1.5-.46l-23.27-.02c-1.35,0-2.5,1.35-2.71,3.18Z" />
                                <path class="cls-13"
                                    d="m614.44,1906.99h0c-.37-.23-.51-.86-.29-1.34,1.02-2.25,4.2-7.74,10.67-6.61.37.07.63.56.56,1.07v.02c-.06.5-.4.82-.76.76-5.79-.99-8.5,3.84-9.32,5.73-.18.4-.54.56-.85.37Z" />
                                <path class="cls-13"
                                    d="m619.82,1909.11h0c-.37-.23-.51-.86-.29-1.34,1.02-2.25,4.2-7.74,10.67-6.61.37.07.63.56.56,1.07v.02c-.06.5-.4.82-.76.76-5.79-.99-8.5,3.84-9.32,5.73-.18.4-.54.56-.85.37Z" />
                                <path class="cls-13"
                                    d="m624.82,1911.09h0c-.37-.23-.51-.86-.29-1.34,1.02-2.25,4.2-7.74,10.67-6.61.37.06.63.56.56,1.07v.02c-.06.5-.4.82-.76.76-5.79-.99-8.5,3.84-9.32,5.73-.18.4-.54.56-.85.37Z" />
                                <path class="cls-13"
                                    d="m825.3,1918.77h47.13c1.42,0,2.57,1.15,2.57,2.57v.13c0,1.41-1.15,2.56-2.56,2.56h-47.13c-1.42,0-2.57-1.15-2.57-2.57v-.13c0-1.41,1.15-2.56,2.56-2.56Z"
                                    transform="translate(1698.94 3842.28) rotate(179.96)" />
                                <path class="cls-25"
                                    d="m872.6,1902.78l1.74,14.63c.21,1.8-.79,3.44-2.12,3.44l-46.06.03c-1.2,0-2.38-.75-3.01-2.15-.64-1.44-.78-3.61,1.28-6.52,4-5.67,16.92-7.18,23.72-11.83.39-.27.86-.41,1.33-.41h20.69c1.2-.01,2.22,1.18,2.41,2.81Z" />
                                <path class="cls-13"
                                    d="m933.9,1918.77h47.13c1.42,0,2.57,1.15,2.57,2.57v.13c0,1.41-1.15,2.56-2.56,2.56h-47.13c-1.42,0-2.57-1.15-2.57-2.57v-.13c0-1.41,1.15-2.56,2.56-2.56Z"
                                    transform="translate(1916.12 3842.21) rotate(179.96)" />
                                <path class="cls-25"
                                    d="m981.19,1902.78l1.74,14.63c.21,1.8-.79,3.44-2.12,3.44l-46.06.03c-1.2,0-2.38-.75-3.01-2.15-.64-1.44-.78-3.61,1.28-6.52,4-5.67,16.92-7.18,23.72-11.83.39-.27.86-.41,1.33-.41h20.69c1.2-.01,2.22,1.18,2.41,2.81Z" />
                                <path class="cls-13"
                                    d="m1789.07,1924.09l52.85-.03c1.63,0,2.96-1.33,2.96-2.96h0c0-1.63-1.33-2.96-2.96-2.96l-52.85.03c-1.63,0-2.96,1.33-2.95,2.96h0c0,1.63,1.33,2.96,2.96,2.96Z" />
                                <path class="cls-25"
                                    d="m1842.17,1900.18l1.96,16.45c.24,2.03-.89,3.87-2.38,3.87l-51.78.03c-1.34,0-2.68-.84-3.38-2.41-.73-1.62-.87-4.06,1.44-7.33,4.5-6.37,19.02-8.07,26.67-13.3.44-.3.96-.46,1.5-.46h23.27c1.35-.02,2.5,1.33,2.71,3.16Z" />
                                <path class="cls-13"
                                    d="m1819.01,1906.56h0c.37-.23.51-.86.29-1.34-1.02-2.25-4.2-7.74-10.67-6.61-.37.07-.63.56-.56,1.07v.02c.06.5.4.82.76.76,5.79-.99,8.5,3.84,9.32,5.73.18.4.54.56.85.37Z" />
                                <path class="cls-13"
                                    d="m1813.63,1908.68h0c.37-.23.51-.86.29-1.34-1.02-2.25-4.2-7.74-10.67-6.61-.37.07-.63.56-.56,1.07v.02c.06.5.4.82.76.76,5.79-.99,8.5,3.84,9.32,5.73.18.4.54.56.85.37Z" />
                                <path class="cls-13"
                                    d="m1808.63,1910.66h0c.37-.23.51-.86.29-1.34-1.02-2.25-4.2-7.74-10.67-6.61-.37.07-.63.56-.56,1.07v.02c.06.5.4.82.76.76,5.79-.99,8.5,3.84,9.32,5.73.18.4.54.56.85.37Z" />
                                <path class="cls-40"
                                    d="m1974.72,1924.09l52.85-.03c1.63,0,2.96-1.33,2.96-2.96h0c0-1.63-1.33-2.96-2.96-2.96l-52.85.03c-1.63,0-2.96,1.33-2.96,2.96h0c0,1.63,1.33,2.96,2.96,2.96Z" />
                                <path class="cls-20"
                                    d="m2027.82,1900.18l1.96,16.45c.24,2.03-.89,3.87-2.38,3.87l-51.78.03c-1.34,0-2.67-.84-3.38-2.41-.73-1.62-.87-4.06,1.44-7.33,4.5-6.37,19.02-8.07,26.67-13.3.44-.3.96-.46,1.5-.46h23.27c1.35-.02,2.5,1.33,2.71,3.16Z" />
                                <path class="cls-13"
                                    d="m2004.65,1906.56h0c.38-.23.51-.86.29-1.34-1.02-2.25-4.2-7.74-10.66-6.61-.37.07-.63.56-.56,1.07v.02c.06.5.4.82.76.76,5.79-.99,8.5,3.84,9.32,5.73.17.4.54.56.85.37Z" />
                                <path class="cls-13"
                                    d="m1999.27,1908.68h0c.37-.23.51-.86.29-1.34-1.02-2.25-4.2-7.74-10.67-6.61-.37.07-.63.56-.56,1.07v.02c.06.5.4.82.76.76,5.79-.99,8.5,3.84,9.32,5.73.17.4.54.56.85.37Z" />
                                <path class="cls-13"
                                    d="m1994.27,1910.66h0c.37-.23.51-.86.29-1.34-1.02-2.25-4.2-7.74-10.66-6.61-.37.07-.63.56-.56,1.07v.02c.06.5.4.82.76.76,5.79-.99,8.5,3.84,9.32,5.73.18.4.54.56.85.37Z" />
                                <path class="cls-40"
                                    d="m2163.11,1924.09l-52.85-.03c-1.63,0-2.96-1.33-2.96-2.96h0c0-1.63,1.33-2.96,2.96-2.96l52.85.03c1.63,0,2.96,1.33,2.96,2.96h0c0,1.63-1.33,2.96-2.96,2.96Z" />
                                <path class="cls-20"
                                    d="m2110.01,1900.18l-1.96,16.45c-.24,2.03.89,3.87,2.38,3.87l51.78.03c1.34,0,2.67-.84,3.38-2.41.72-1.62.87-4.06-1.44-7.33-4.5-6.37-19.02-8.07-26.67-13.3-.44-.3-.96-.46-1.5-.46h-23.27c-1.35-.02-2.5,1.33-2.71,3.16Z" />
                                <path class="cls-13"
                                    d="m2133.18,1906.56h0c-.37-.23-.51-.86-.29-1.34,1.02-2.25,4.2-7.74,10.67-6.61.37.07.63.56.56,1.07v.02c-.06.5-.4.82-.76.76-5.79-.99-8.5,3.84-9.32,5.73-.18.4-.54.56-.85.37Z" />
                                <path class="cls-13"
                                    d="m2138.56,1908.68h0c-.37-.23-.51-.86-.29-1.34,1.02-2.25,4.2-7.74,10.67-6.61.37.07.63.56.56,1.07v.02c-.06.5-.4.82-.76.76-5.79-.99-8.5,3.84-9.32,5.73-.18.4-.54.56-.85.37Z" />
                                <path class="cls-13"
                                    d="m2143.56,1910.66h0c-.37-.23-.51-.86-.29-1.34,1.02-2.25,4.2-7.74,10.67-6.61.37.07.63.56.56,1.07v.02c-.06.5-.4.82-.76.76-5.79-.99-8.5,3.84-9.32,5.73-.18.4-.54.56-.85.37Z" />
                                <path class="cls-13"
                                    d="m1712.18,1924.09l52.85-.03c1.63,0,2.96-1.33,2.95-2.96h0c0-1.63-1.33-2.96-2.96-2.96l-52.85.03c-1.63,0-2.96,1.33-2.96,2.96h0c0,1.63,1.33,2.96,2.96,2.96Z" />
                                <path class="cls-25"
                                    d="m1765.28,1900.18l1.96,16.45c.24,2.03-.89,3.87-2.38,3.87l-51.78.03c-1.34,0-2.68-.84-3.38-2.41-.73-1.62-.87-4.06,1.44-7.33,4.5-6.37,19.02-8.07,26.67-13.3.44-.3.96-.46,1.5-.46h23.27c1.35-.02,2.5,1.33,2.71,3.16Z" />
                                <path class="cls-13"
                                    d="m1742.12,1906.56h0c.37-.23.51-.86.29-1.34-1.02-2.25-4.2-7.74-10.67-6.61-.37.07-.63.56-.56,1.07v.02c.06.5.4.82.76.76,5.79-.99,8.5,3.84,9.32,5.73.18.4.54.56.85.37Z" />
                                <path class="cls-13"
                                    d="m1736.74,1908.68h0c.37-.23.51-.86.29-1.34-1.02-2.25-4.2-7.74-10.67-6.61-.37.07-.63.56-.56,1.07v.02c.06.5.4.82.76.76,5.8-.99,8.5,3.84,9.32,5.73.18.4.54.56.85.37Z" />
                                <path class="cls-13"
                                    d="m1731.74,1910.66h0c.37-.23.51-.86.29-1.34-1.02-2.25-4.2-7.74-10.67-6.61-.37.07-.63.56-.56,1.07v.02c.06.5.4.82.76.76,5.79-.99,8.5,3.84,9.32,5.73.17.4.54.56.85.37Z" />
                            </g>
                        </g>
                    </svg>
